<svg xmlns="http://www.w3.org/2000/svg" viewBox="0 0 217 201"><defs><style>.a{fill:#fff;}</style></defs><title>Buckinghamshire white</title><path class="a" d="M79.49,141c3.41-1.88,6.81-3.79,10.22-5.66,5.92-3.22,11.86-6.38,17.9-9.36a2.57,2.57,0,0,0,1.42-1.73,33.42,33.42,0,0,0,.89-8.51c0-.64-.24-.81-.82-.7a12.2,12.2,0,0,0-1.51.2c-1.64.53-2.76-.27-3.75-1.4a1.29,1.29,0,0,0-1.25-.58c-.84.07-1.08-.9-1.69-1.3-2-1.28-2.34-3.18-2-5.35a11.78,11.78,0,0,0,.42-3.83c0-.13,0-.32,0-.4,1.5-1.53,2.29-3.58,3.77-5.12a.45.45,0,0,1,.25-.12,4.21,4.21,0,0,0,3.28-2c.66-.94,3.51-.61,4.6-.1s1.67,1.44,3,1.16c1.06-.21,2.48,1.67,2.34,2.79a8,8,0,0,0-.08,2.62,5.89,5.89,0,0,0,4.15,4.4c1.09.41.56,1.42.17,1.82a7,7,0,0,0-1.68,3.2,4.59,4.59,0,0,1-1.87,2.7c-1.29,1-2.37,2.18-4.37,1.28-1.33-.6-1.79,0-1.75,1.56a30.89,30.89,0,0,0,.41,6.07c.2.88.42,1.23,1.45.73,5.24-2.5,10.42-5.15,16-6.88a1,1,0,0,0,.84-.93,56.28,56.28,0,0,0,.5-7.45c0-.59-.26-.72-.76-.63-.23,0-.47,0-.69.08a4.39,4.39,0,0,1-5.4-1.9,1,1,0,0,0-.53-.4c-3.63-1.36-5.46-3.9-5-7.31.16-1.14.31-2.29.49-3.43a2.56,2.56,0,0,0,0-1.62.66.66,0,0,1,.11-.78c1.73-1.58,2.35-4,4-5.61a2,2,0,0,1,1.67-.78c1,.15,1.42-.37,1.87-1.07,1.26-2,4.31-2.3,6.28-1.13,1,.57,1.85,1.87,3.42,1.3a1.67,1.67,0,0,1,1.5.75A5,5,0,0,0,140,87.58c1.13.57,2.16,1.33,1.91,2.83a3.48,3.48,0,0,0,.94,2.48c.86,1.34.36,2.87.93,4.26.43,1-.79,1.82-1.2,2.75-.51,1.18-1.3,2.25-1.39,3.57s-1.38,1.51-2,2.33a8.85,8.85,0,0,1-1.72,1.35,2,2,0,0,1-2.31.34,2.52,2.52,0,0,0-1-.34c-2.15-.21-2.43,0-2.37,2.21.05,1.66.14,3.32.25,5,.05.69.17,1.22,1.18,1a59.91,59.91,0,0,1,16.07-1.49c1.3,0,1.67-.47,1.83-1.57.32-2.2.29-4.42.4-6.63,0-.94-.56-1.06-1.15-.85-2.19.79-3.62-.24-4.85-1.86a.86.86,0,0,0-.64-.45c-1.46-.17-1.84-.93-1-2.17.33-.47.56-1,.94-1.45a2.16,2.16,0,0,0,.35-2.39c-.41-1.08,0-2.38-.74-3.47a6,6,0,0,1-1-3.75.59.59,0,0,0-.24-.47c-1.59-.84-1.1-2-.21-2.84s1.27-2.57,2.52-2.71a4.16,4.16,0,0,0,3.35-2.35c.32-.53,4-1.1,4.48-.69,1,.89,2.47.87,3.25,2,.16.23.36.21.59.07,1-.64,1.77.08,2.25.75a5.24,5.24,0,0,0,2.27,1.72c1.38.61,2.41,1.45,2.24,3.18-.11,1.21.89,2,1.21,3.13.17.61.64,1.11.22,1.79a.62.62,0,0,0,0,.53c.95,1.33.22,2.33-.51,3.45a10.31,10.31,0,0,0-1.68,4.21,1.7,1.7,0,0,1-.76,1.11c-.89.71-1.75,1.48-2.67,2.15a2.39,2.39,0,0,1-2.51.55c-1.2-.5-2.51-.14-3.77-.27-.46,0-.55.22-.52.59.22,2.57,0,5.17.57,7.72a1.4,1.4,0,0,0,1.49,1.24,62.17,62.17,0,0,1,8.34,1.25c.73.16.86.39.62,1.1-.61,1.84-1.17,3.7-1.66,5.57a1.37,1.37,0,0,1-1.7,1.22c-5.9-.42-11.79-.52-17.71-.43a97,97,0,0,0-33.2,6.61A265.67,265.67,0,0,0,83.26,140.9,5.42,5.42,0,0,1,79.49,141Z"/><path class="a" d="M92.39,150.7c5.52,0,10.88-.09,16.19.72a5.45,5.45,0,0,1,2.17.85,1.81,1.81,0,0,1,1,1.68,1.74,1.74,0,0,1-1.28,1.49c-1.37.53-2.76,1-4.12,1.6a14.63,14.63,0,0,0-4.53,2.61c-.75.71-1.52,1.49-1.19,2.62s1.47,1.22,2.39,1.32a44,44,0,0,0,10.07-.33,62.56,62.56,0,0,0,38.23-19.11c12.39-13,18.68-28.56,17.78-46.5-1.33-26.11-14.23-44.9-37.77-56.15a59.3,59.3,0,0,0-35.41-4.87C71.59,40.48,54.63,54,45.08,76.71a58.77,58.77,0,0,0-4.33,21.45c0,1.2-.32,1.71-1.56,1.47a2.81,2.81,0,0,0-1,0c-1,.14-1.18-.3-1.15-1.18A63.14,63.14,0,0,1,38.8,84.74c6.29-24.37,21.11-41.39,44.93-49.51s46-3.55,65.42,12.4c13.52,11.1,21.75,25.62,23.84,43,3.2,26.8-6.49,48.44-28,64.59-11.55,8.67-24.82,12.78-39.3,12.89a22.12,22.12,0,0,1-8.09-1.63c-2.09-.8-2.67-2-2-4.14a8.91,8.91,0,0,1,3.8-4.78,34.73,34.73,0,0,1,6.4-3.26c.39-.18,1-.24,1-.79s-.67-.4-1.06-.5A116.55,116.55,0,0,0,94,151.17,2.55,2.55,0,0,1,92.39,150.7Z"/><path class="a" d="M53.68,104.39A75.37,75.37,0,0,1,102,122.13a5.66,5.66,0,0,1,.92.83c.4.54,1.64,1,1.12,1.54a2.06,2.06,0,0,1-2.81.41A98.86,98.86,0,0,0,82.65,116a80.06,80.06,0,0,0-32-4.93c-2.11.12-4.2.54-6.31.74-1.21.11-1.49.54-1.18,1.75a64.36,64.36,0,0,0,16.63,29.54,62.28,62.28,0,0,0,28.56,16.7c1.13.31,1.57.62,1.19,1.92-.83,2.86-.77,3-3.56,2q-40.47-13.35-48.29-55.26c-.52-2.74-.44-2.7,2.32-3.08A109,109,0,0,1,53.68,104.39Z"/><path class="a" d="M67.11,56.34c.7.07.78.75,1.36.91.39-1-.22-2.21.5-3.23.53.56.49,1.3.76,1.91a18.23,18.23,0,0,0,3.75,5.6c2.06,2,4.13,4.09,6.17,6.16.82.83,1.39.91,1.82-.34.34-1,.85-1.85,1.18-2.81A9.74,9.74,0,0,1,86.15,60c.58-.44,1.25-.82,1.24-1.71,0-.22.17-.56.41-.39,1.31,1,.58-.79,1.14-.81s.42.83,1,.93c.66-.35.51-1.24,1.1-1.72.49.37.33.91.32,1.36a19.23,19.23,0,0,1-1.74,7.22c-.79,1.81-1.5,3.66-2.2,5.52-.64,1.7-.53,1.79,1.14,2.32,2.67.85,5.32.13,8,0a11.64,11.64,0,0,0,4.59-.88,2.36,2.36,0,0,1,2.44.36c-.18.46-.47.37-.71.3s-.47-.39-.7,0,0,.5.26.66.5.47.36.8-.56.23-.86.23c-4.25.07-8.46.65-12.7.86a12.24,12.24,0,0,0-5.44,1.84,12.77,12.77,0,0,1-8.37,1.71c-1.54-.24-3,.49-4.45.84-.64.15-1.29.73-2,.15.8-.8-.75-1-.43-1.69a1.1,1.1,0,0,0,.06-.41c0-.42-1.27-.25-.5-1,.38-.38,1-.31,1.44-.42a24.14,24.14,0,0,0,4.8-1.29c.59-.27,1-.7.16-1.12-2.27-1-3.55-3-4.78-5a23.88,23.88,0,0,1-3.21-7.9c-.1-.57-.92-1.74.76-1.74.41,0,.21-.52.15-.81C67.23,57.53,66.79,57,67.11,56.34Z"/><path class="a" d="M83.35,22V13.32c0-.27,0-.55,0-.83.18-3.28.31-3.41,3.63-4,.58-.11.83,0,1,.58q2,7,4.06,14.08c.16.55,0,.81-.55,1-2,.77-2.07.75-2.67-1.38-1-3.44-1.95-6.88-3-10.66a11.14,11.14,0,0,0-.27,3.37c-.12,3.14-.24,6.28-.23,9.41,0,1.23-.84,1.2-1.57,1.5s-1.23.05-1.67-.67c-1.8-2.95-3.66-5.86-5.52-8.78-.26-.41-.4-.94-1-1.22a3.63,3.63,0,0,0,.37,1.7c.91,3.14,1.81,6.28,2.8,9.4.35,1.12-.42,1.16-1.06,1.29s-1.34.9-1.7-.42c-1.3-4.67-2.67-9.31-4-13.95-.18-.61-.09-1,.59-1.09l.13,0C76,11.45,76,11.44,78,14.4c1.64,2.53,3.26,5.08,4.89,7.62Z"/><path class="a" d="M186,105.59c3.44,0,6.89,0,10.32,0,1.24,0,1.39.47,1.37,1.54s-.42,1.37-1.47,1.33q-6.85-.25-13.7-.35c-1,0-1.12-.33-1.21-1.26-.17-1.83.53-2.8,2.16-3.59,3.54-1.73,7-3.68,10.47-5.54l0-.44h-9.43l-1.11,0c-1.72,0-2.15-.65-1.72-2.35.13-.53.46-.5.82-.49l14.66.35a.81.81,0,0,1,.75.26c.53.76-.2,3.71-1,4.17l-10.32,5.62-.57.35Z"/><path class="a" d="M23.27,140.34a4,4,0,0,1,5.1-3.75c.66.18.94.33,1-.55a3.85,3.85,0,0,1,2.94-3.46,4.44,4.44,0,0,1,4.7,1.2c1.49,1.44,2.22,3.38,3.23,5.12,1.56,2.69,1.53,2.72-1.23,4.26C35.57,145.1,32.09,147,28.67,149c-.94.54-1.28.37-1.74-.54-.88-1.77-1.91-3.47-2.87-5.2A6.43,6.43,0,0,1,23.27,140.34ZM31.7,138A7.65,7.65,0,0,0,34,142.22c.57.52,1.84-.86,2.83-1.29a9.15,9.15,0,0,0,1-.55.43.43,0,0,0,.19-.68,19.6,19.6,0,0,0-2.26-3.62,2,2,0,0,0-2.52-.45A2.27,2.27,0,0,0,31.7,138Zm-3.35,1.2c-1.7,0-2.68,1.37-2.15,2.73A8.73,8.73,0,0,0,28,145.16c1,1,1.82-.57,2.77-.87.38-.12,1.26-.23.76-1.1-.6-1-1.17-2.1-1.83-3.1A1.78,1.78,0,0,0,28.35,139.18Z"/><path class="a" d="M33.51,63.53c-3.55-1.54-6.72-3-10-4.29-1.19-.47-1-1-.61-1.86s.65-1.31,1.75-.8c4.23,2,8.5,3.79,12.77,5.62.78.34,1,.65.57,1.4A5.93,5.93,0,0,0,37.42,65c-.24.86-.81,1.07-1.63,1.15-4.09.36-8.17.77-12.25,1.18-.22,0-.43.07-.69.12.24.58.76.57,1.14.74,3,1.33,6.07,2.68,9.15,3.93,1.22.49.68,1.12.37,1.81s-.4,1.37-1.52.86c-4.27-2-8.59-3.82-12.91-5.67-.82-.35-.89-.64-.64-1.51.57-2,1.81-2.73,3.85-2.87C25.91,64.48,29.52,64,33.51,63.53Z"/><path class="a" d="M45.54,50a6.54,6.54,0,0,1-1.38,4.66,6.75,6.75,0,0,1-7,2.9c-5.43-.88-9.17-6.49-7.38-11.18A8.32,8.32,0,0,1,34,41.76a5.45,5.45,0,0,1,5.13.07c-.48.67-.92,1.25-1.32,1.85a.94.94,0,0,1-1.15.45c-1.73-.35-2.9.58-3.83,1.89a3.8,3.8,0,0,0-.34,4.3,8.46,8.46,0,0,0,6.1,4.34A4.29,4.29,0,0,0,42.93,52,3.39,3.39,0,0,0,42,47.84c-.53-.51-.88-.52-1.26.12-.26.44-.66.79-.89,1.24-.61,1.21-1.27,1-2.18.28-.6-.49-.68-.79-.18-1.41,1-1.26,1.94-2.57,2.85-3.9.46-.67.79-.82,1.5-.26,1.77,1.4,3.64,2.68,5.44,4,.37.28,1.21.46.59,1.21-.47.57-.72,1.69-1.87.9C45.92,50,45.75,50,45.54,50Z"/><path class="a" d="M145,25.08c1,1.59.67,3.07,0,4.54-.3.67-.64,1.33-.93,2-.67,1.6-.64,1.55-2.21.87-.91-.39-1-.88-.67-1.7.46-1,.89-2,1.32-3a2.06,2.06,0,0,0-.89-2.74c-3-2.09-3.36-2-4.83,1.19a12.67,12.67,0,0,0-.8,1.76c-.38,1.36-1.06,1.33-2.19.76s-1.19-.86-.67-1.91c2-4.1,3.92-8.23,5.81-12.38.4-.89.76-1,1.63-.6,1.88,1,3.86,1.76,5.72,2.76,2.89,1.55,3.62,4.41,1.88,6.83A4.36,4.36,0,0,1,145,25.08Zm.94-4.52a1.85,1.85,0,0,0-.46-1.26,6.91,6.91,0,0,0-4.08-2.1c-.92-.11-1,1.65-1.54,2.49a6.79,6.79,0,0,0-.39.87c-.2.38-.09.58.29.74,1.13.47,2.23,1.07,3.4,1.44A2.15,2.15,0,0,0,145.89,20.56Z"/><path class="a" d="M181.68,73.42a7.7,7.7,0,0,1-7.58-7.89c0-4.27,4.37-8,9.3-8a7.85,7.85,0,0,1,7.59,8C191,69.82,186.75,73.44,181.68,73.42ZM188.26,65c0-2.27-1.53-4.24-3.48-4.43a7.74,7.74,0,0,0-7.07,3,4.34,4.34,0,0,0,2,6.68c2.63.83,7-1.07,8.17-3.56A3.49,3.49,0,0,0,188.26,65Z"/><path class="a" d="M53.06,34.49l-.49.41c-1.35,1.19-2.69,2.4-4.07,3.55-.56.46-.57.76-.08,1.29,1.2,1.29,2.28,2.67,3.49,3.94.6.63.63,1-.1,1.5a5.64,5.64,0,0,0-.93.83c-.4.43-.69.43-1.1,0Q44.92,40.36,40,34.83c-.37-.42-.36-.69.05-1A6.65,6.65,0,0,0,41,33c.67-.8,1.13-.57,1.7.16.89,1.12,1.93,2.12,2.8,3.25.52.66.88.58,1.42.08,1.29-1.18,2.6-2.36,4-3.47.58-.48.58-.8.09-1.32C50,30.61,49,29.45,48,28.39c-.64-.66-.61-1.05.09-1.65,1.48-1.25,1.44-1.28,2.69.15,2.91,3.33,5.81,6.68,8.77,10,.68.75.65,1.2-.18,1.68-.66.38-1.09,1.74-2.14.37S55.07,36.39,54,35.15C53.73,34.89,53.55,34.53,53.06,34.49Z"/><path class="a" d="M114,16.49c-.6-.19-.8.25-.89,1-.2,1.69-.52,3.37-.7,5.07-.08.76-.28,1-1.09.92-2-.26-2.07-.22-1.8-2.26.58-4.34,1.2-8.68,1.74-13,.11-.89.37-1.19,1.29-1,2,.32,2,.28,1.71,2.24-.16,1.09-.3,2.19-.5,3.28-.16.88,0,1.34,1,1.41a43.3,43.3,0,0,1,4.93.69c.83.16,1.07-.08,1.15-.84.16-1.47.45-2.92.57-4.39.07-.84.34-1.09,1.19-1,2.05.22,2,.18,1.74,2.2-.61,4.29-1.23,8.58-1.74,12.89-.13,1.1-.5,1.4-1.54,1.21s-1.92-.14-1.56-1.67.46-3.28.75-4.91c.12-.68-.07-.9-.72-1C117.77,17,116,16.77,114,16.49Z"/><path class="a" d="M30.43,83.29c.1.27.12.32.13.36.22,2.49-.95,4-3.22,4.9-1.52.63-2.87,1.66-4.34,2.42-.73.38-.61.65-.24,1.23a2.63,2.63,0,0,0,2.48,1.39,18.24,18.24,0,0,1,2.2.23c2,.17,1.94.16,1.83,2.12-.05.9-.24,1.15-1.22,1-4.67-.56-9.35-1-14-1.48-1-.09-1.09-.43-1-1.29.29-2,.24-1.95,2.25-1.71,1.64.2,3.29.38,5,.57.07-.62-.4-.85-.66-1.16a48,48,0,0,0-4.21-4.77C13.75,85.62,14,84,14.48,81.85c1.55,1.88,3,3.59,4.39,5.32,1.58,1.92,1.58,1.93,3.75.67Z"/><path class="a" d="M152.52,30.69a5,5,0,0,1-.39.55c-2.61,3-2.61,3,.56,5.3,1.08.79,2.18,1.56,3.24,2.38.3.23,1.1.44.48,1s-.82,1.81-1.87,1.1c-2.78-1.9-5.46-3.94-8.19-5.91-.43-.3-.31-.57-.06-.91q4.36-6,8.7-12c.35-.5.65-.5,1.12-.15Q160,24.9,164,27.71c1,.69,0,1.09-.24,1.54s-.47,1.19-1.31.54C160.72,28.5,159,27.3,157.27,26c-.65-.5-1-.49-1.54.22-1.71,2.32-1.75,2.29.6,4,1.11.82,2.2,1.68,3.36,2.43s.25,1.11-.08,1.64-.66,1.06-1.47.41c-1.55-1.22-3.19-2.34-4.8-3.51Z"/><path class="a" d="M100.33,7c2.71,0,4.74,1.27,5.39,3.29.22.66.22,1-.64,1-1.09,0-2.14.37-2.88-1.07C101.57,9,98.83,9,97.81,10a1.8,1.8,0,0,0,.55,3,11.43,11.43,0,0,0,2.94.74,11.44,11.44,0,0,1,3.14,1,4.51,4.51,0,0,1,.67,7.53,8.8,8.8,0,0,1-8.68.53,5.8,5.8,0,0,1-1.35-1.17c-.53-.63-1.26-1.52-.9-2.18s1.6-.3,2.44-.44c.5-.09.55.39.74.68a4.15,4.15,0,0,0,5.4,1.11,2.13,2.13,0,0,0-.26-3.65,11.63,11.63,0,0,0-3.33-.88,12.76,12.76,0,0,1-2.63-.83,3.83,3.83,0,0,1-2.43-3.56A4.17,4.17,0,0,1,96.21,8,7.58,7.58,0,0,1,100.33,7Z"/><path class="a" d="M27.11,117.34a5.26,5.26,0,0,1,5,2.82,9.94,9.94,0,0,1,1.22,3.5c.46,3-.67,5.27-3.62,6.39-3.22,1.22-6.56,2.13-9.85,3.21-.46.15-.69.08-.81-.37,0-.14-.07-.27-.11-.4-.67-2-.67-2,1.27-2.58,2.5-.78,5-1.52,7.52-2.33,2.83-.92,3.8-3,2.61-5.43a2.83,2.83,0,0,0-2.74-1.75,8.12,8.12,0,0,0-2.44.42c-2.63.83-5.29,1.61-7.9,2.49-.88.3-1.21.13-1.48-.74-.58-1.88-.62-1.86,1.22-2.42l7.51-2.36A8.26,8.26,0,0,1,27.11,117.34Z"/><path class="a" d="M186.35,90.19c-3.31,0-5.18-1.32-6.1-3.92a10.36,10.36,0,0,1-.62-3.66c.06-2.89,1.8-4.92,5-5.61,3-.65,6-1.13,8.95-1.77,1-.21,1.27,0,1.43,1,.31,1.8.37,1.8-1.47,2.17-2.71.54-5.44,1-8.14,1.63s-3.68,2.24-3.11,4.49a3.23,3.23,0,0,0,4.07,2.59c3-.51,6-1.07,9-1.75,1.3-.3,1.55.22,1.75,1.3s.18,1.61-1.16,1.81C192.52,88.93,189.21,89.83,186.35,90.19Z"/><path class="a" d="M63.48,31.12c.24,1.3.43,2.25.59,3.2.13.75-1.58,2.4-2.29,2.21-.32-.09-.32-.41-.36-.68-.92-5.07-1.83-10.15-2.76-15.23a1.08,1.08,0,0,1,.65-1.31c2.51-1.44,2.5-1.46,4.69.45,3.35,2.9,6.67,5.83,10,8.7.75.64.69.88-.13,1.41-1.25.81-2.15.89-3.31-.27-1.72-1.73-1.82-1.64-4-.42l-2.41,1.35C63.81,30.74,63.42,30.92,63.48,31.12ZM61.28,21c.34,1.53.6,2.69.84,3.84.8,3.82.8,3.82,4.08,1.59a.41.41,0,0,1,.11-.07c.37-.18.5-.4.15-.72Z"/><path class="a" d="M21.14,114.36c-7.3-.08-9.09-6.12-7.65-10.4a5.56,5.56,0,0,1,3.28-3.36c.5-.22.85-.22.91.5.11,1.21.36,2.21-1,3.15-1.95,1.33-1.39,4.87.75,6.14a8.48,8.48,0,0,0,8.51-.74,3.93,3.93,0,0,0-.79-6.56c-.58-.29-1.35-2.61-1-3.09s.61-.13.89-.06a5.92,5.92,0,0,1,3.55,2.47,7.46,7.46,0,0,1-4.13,11.47A10.72,10.72,0,0,1,21.14,114.36Z"/><path class="a" d="M178.73,119.85c0-5.47,3.94-8.49,9.63-7.45,6,1.1,8.77,6.51,6,11.62a5.78,5.78,0,0,1-4.86,3.19c-.71.06-.9-.16-.75-.86.24-1.19.5-2.08,2-2.54,2.39-.74,2.92-4.35,1.09-6.27a8.69,8.69,0,0,0-8.12-1.84,4,4,0,0,0-1.44,6.39,3.45,3.45,0,0,1,.09,3.24c-.38.41-.68,0-.94-.17A5.89,5.89,0,0,1,178.73,119.85Z"/><path class="a" d="M172.79,58.12a7.87,7.87,0,0,1-7.4-7.72c.22-5.23,7-9.69,11.89-7.77,3.93,1.55,5.95,6.39,4.08,9.76-.79,1.43-.91,1.42-1.89.19a2,2,0,0,1-.39-2.42c1.2-2.6-1.5-5.61-4.54-5a7.94,7.94,0,0,0-5.94,4.52,3.91,3.91,0,0,0,4,5.58c.61-.06,2.36,1.59,2.3,2.18,0,.28-.25.37-.47.42C173.77,58,173.09,58.07,172.79,58.12Z"/><path class="a" d="M170.45,144.06a1.8,1.8,0,0,1-1.58-2.43c1.45-2.51,2.94-5,4.34-7.56.42-.78.74-.82,1.47-.4q6.09,3.56,12.23,7c.7.4.91.72.47,1.49-1,1.76-1,1.78-2.81.74-3-1.75-6.1-3.47-9.11-5.26-.84-.5-1.23-.37-1.68.48-.94,1.8-2,3.53-3,5.29C170.61,143.69,170.54,144.07,170.45,144.06Z"/><path class="a" d="M128.47,26.82c-.66-.19-1.32-.38-2-.59-.5-.15-.41-.52-.3-.89,1.42-4.71,2.85-9.41,4.25-14.12.18-.58.46-.63,1-.51,2.21.51,2.22.48,1.57,2.65l-3.09,10.16c-.26.88-.51,1.76-.79,2.64C129.05,26.47,129,27,128.47,26.82Z"/><path class="a" d="M16.59,74.82c1.93.48,3.63.89,5.32,1.33,3,.79,6,1.63,9.08,2.37.84.21,1.24.43.87,1.36s-.4,2-1.79,1.65c-4.49-1.16-9-2.37-13.46-3.51-.81-.2-1.13-.52-.76-1.32C16.14,76.07,16,75.18,16.59,74.82Z"/><path class="a" d="M191.32,133.44c-.25.58-.53,1.32-.87,2-.2.4-.55.17-.84,0-4.51-1.85-9-3.71-13.54-5.53-.63-.25-.75-.56-.48-1.13a10.17,10.17,0,0,0,.51-1.29c.17-.53.45-.73,1-.5l13.78,5.63A.57.57,0,0,1,191.32,133.44Z"/><path class="a" d="M119.84,185a4.32,4.32,0,0,1-1.14,3.41,3.55,3.55,0,0,1-5.73-1.26,8.94,8.94,0,0,1-.59-5.4,3.53,3.53,0,0,1,6.74-.67A10.71,10.71,0,0,1,119.84,185Zm-5.62-1.61a9.23,9.23,0,0,0,.62,3.24,1.53,1.53,0,0,0,3-.49,11.19,11.19,0,0,0-.2-3.16c-.37-1.87-1-2.61-2-2.49S114.11,181.55,114.22,183.4Z"/><path class="a" d="M137.83,181c0,2.19-.75,3.34-2.33,3.88a3.21,3.21,0,0,1-4-1.21,8.26,8.26,0,0,1-1.74-5.81A3.18,3.18,0,0,1,132,175a3.12,3.12,0,0,1,3.56.74A8.65,8.65,0,0,1,137.83,181Zm-1.86.44a11.32,11.32,0,0,0-1.63-4.28,1.52,1.52,0,0,0-2.8,1,9.16,9.16,0,0,0,1.66,4.6,1.42,1.42,0,0,0,1.78.66C135.75,183.08,136,182.5,136,181.41Z"/><path class="a" d="M146,175.54c-.43,0-.56-.24-.68-.48-.21-.44.16-.54.43-.7,1.53-.87,3.07-1.7,4.56-2.62A71.28,71.28,0,0,0,169.05,155s0-.08.09-.11c.33-.3.47-1,1.16-.53s.07.88-.19,1.22a66.86,66.86,0,0,1-6.74,7.52,74,74,0,0,1-16.65,12Z"/><path class="a" d="M66.53,174.88a2.24,2.24,0,0,1-.35.55c-.32.28-.6,0-.87-.14a73.5,73.5,0,0,1-23.13-19c-.26-.32-.52-.65-.75-1s-.55-.57-.1-.93.73-.2,1,.19c1,1.22,2,2.45,3,3.62a72.48,72.48,0,0,0,20.07,15.86C65.82,174.27,66.32,174.35,66.53,174.88Z"/><path class="a" d="M105.88,188.07h3.92c.46,0,1-.08.86.68-.07.53-.11,1-.85,1-1.8,0-3.6,0-5.39.12-.94.05-1-.39-.83-1.09a6.77,6.77,0,0,1,2.63-3.63,6.5,6.5,0,0,0,1.74-1.56c.49-.82.62-1.76-.32-2.31a1.39,1.39,0,0,0-2.17.7,1.16,1.16,0,0,1-1.79.63c-.56-.29-.11-1,.15-1.45a3.36,3.36,0,0,1,3.41-1.65,2.82,2.82,0,0,1,2.8,1.88,3.21,3.21,0,0,1-1,3.64C108,186,106.71,186.59,105.88,188.07Z"/><path class="a" d="M127.87,180.4c0,1.21-.81,2-1.47,2.89s-1.89,1.69-1.46,2.44,1.79-.22,2.75-.35c.32,0,.63-.13.95-.2s.79-.36.84.27c0,.45.35,1.1-.39,1.28-1.92.48-3.86.9-5.79,1.35-.66.16-.65-.31-.68-.73a5.9,5.9,0,0,1,1.48-3.92c.47-.63,1-1.21,1.45-1.85a1.82,1.82,0,0,0,.12-2.08,1.19,1.19,0,0,0-1.28-.62,1.46,1.46,0,0,0-1.45,1.39c-.11,1-1,.91-1.47.86-.76-.06-.37-.8-.3-1.22a3.64,3.64,0,0,1,4-2.65A3,3,0,0,1,127.87,180.4Z"/><path class="a" d="M79,183.69a3.61,3.61,0,0,1-6.34-3c.7-3.51,3.52-5,6.15-3.15a3.61,3.61,0,0,1,1,4.47c-.26.47-.53.39-.9.25-1.13-.41-2.28-.74-3.38-1.21s-1.18.19-1.09,1a1.64,1.64,0,0,0,2.25,1.34C77.66,182.87,78.28,183.29,79,183.69Zm-2.29-5.42a1.39,1.39,0,0,0-1.39.94c-.21.78.64.55,1,.78a3,3,0,0,0,.9.33c.33.09.7.45,1,.08a1.16,1.16,0,0,0,0-1.3A1.6,1.6,0,0,0,76.72,178.27Z"/><path class="a" d="M84.73,187.54c-1.32-.15-2.67-.4-3.47-1.75-.28-.48-.57-1.24-.1-1.49a1.27,1.27,0,0,1,1.63.6,1.87,1.87,0,0,0,1.32,1.1c.52.13,1.06.16,1.32-.4s-.05-1-.52-1.26c-.63-.38-1.29-.72-1.88-1.14a2,2,0,0,1-.94-2.48,2.2,2.2,0,0,1,2.36-1.52,3.64,3.64,0,0,1,3.4,1.71c.22.39.64,1,.08,1.32a1.47,1.47,0,0,1-1.52-.39c-.19-.17-.24-.5-.42-.69a1.55,1.55,0,0,0-1.49-.5.65.65,0,0,0-.54.57c-.07.65.49.82.9,1.08s1,.52,1.43.83a2.25,2.25,0,0,1,1.13,2.81C87,187.21,86,187.53,84.73,187.54Z"/><path class="a" d="M89.81,186.61l.56-3.44c.08-.53.33-1.14-.58-1.21-.46,0-.44-.39-.39-.72s0-.76.49-.69c1,.15,1.1-.49,1.09-1.15,0-1,.59-.8,1.21-.77.83,0,.88.5.69,1.11-.26.8-.23,1.36.82,1.39.5,0,.58.35.45.78s-.13.81-.66.64c-1-.34-1.14.35-1.26,1.06s-.25,1.64-.39,2.46c-.11.66-.24,1.32.72,1.46.46.07.42.4.38.74a.64.64,0,0,1-.55.67A2.12,2.12,0,0,1,89.81,186.61Z"/><path class="a" d="M95.33,187.94c.11-.14-.74-1.34.66-1.16.58.07,1.53-.12,1.17,1.06-.19.61.4,1.73-1,1.53C95.49,189.28,94.7,189.36,95.33,187.94Z"/><path class="a" d="M104.63,74.14c-.61-.12-1.39.12-1.39-.82a.55.55,0,0,1,.78-.53c.61.3,1.62.23,1.72,1C105.8,74.31,105,74,104.63,74.14Z"/></svg>