<?xml version="1.0" encoding="utf-8"?>
<!-- Generator: Adobe Illustrator 24.1.3, SVG Export Plug-In . SVG Version: 6.00 Build 0)  -->
<svg version="1.1" id="Layer_1" xmlns="http://www.w3.org/2000/svg" xmlns:xlink="http://www.w3.org/1999/xlink" x="0px" y="0px"
	 viewBox="0 0 217.6 61.2" style="enable-background:new 0 0 217.6 61.2;" xml:space="preserve">
<style type="text/css">
	.st0{clip-path:url(#SVGID_2_);}
	.st1{fill:#FFFFFF;}
</style>
<g>
	<defs>
		<rect id="SVGID_1_" x="2.1" y="9.3" width="213" height="42.9"/>
	</defs>
	<clipPath id="SVGID_2_">
		<use xlink:href="#SVGID_1_"  style="overflow:visible;"/>
	</clipPath>
	<g class="st0">
		<path class="st1" d="M196.5,43.8h4.7V32.6c-0.1-2.7,2.1-5,4.8-5c0.1,0,0.2,0,0.3,0c2.8,0,4.1,1.3,4.1,4.3v12h4.7V30.7
			c0-4.3-2.9-6.5-7.5-6.5c-2.6-0.1-5.1,1.2-6.6,3.4l-0.1-0.1v-2.8h-4.4V43.8z M178,32.6c0.3-3,2.9-5.3,5.9-5c2.7,0.2,4.8,2.3,5,5
			H178z M193.6,35.4c0.8-5.3-2.9-10.3-8.2-11.1c-0.6-0.1-1.2-0.1-1.8-0.1c-5.4-0.2-10,4-10.3,9.4c0,0.2,0,0.4,0,0.7
			c0,5.9,3.7,10.1,10.4,10.1c4.6,0,8.6-2.3,9.6-6.5h-4.4c-0.8,2.1-2.5,3.2-5.2,3.2c-2.9,0.2-5.5-2-5.7-4.9c0-0.2,0-0.5,0-0.7H193.6z
			 M170.5,17.4h-4.7v9.8h-0.1c-1.4-2.1-4.4-3-7.1-3c-4.6,0-9.2,3-9.2,9.9c0,5.7,3.3,10.2,9.9,10.2c2.7,0,5.3-0.9,6.6-3.1h0.1v2.6
			h4.4L170.5,17.4z M154.1,34.4c0-3.4,1.6-7,6-7c3.6,0,5.9,2.5,5.9,6.7c0,3.3-1.8,6.8-6,6.8S154.1,37.7,154.1,34.4 M116,43.7h4.7
			V32.5c-0.2-2.5,1.7-4.8,4.2-5c0.1,0,0.3,0,0.4,0c2.8,0,3.7,1.4,3.7,4v12.3h4.7V32.6c0-3.2,1.4-5.1,4.5-5.1c3.7,0,3.9,2.1,3.9,5.1
			v11.2h4.7V30.6c0-4.7-2.6-6.4-7.1-6.4c-2.6-0.1-5.1,1.1-6.6,3.2c-0.9-2.2-3.4-3.2-6-3.2c-2.6-0.2-5.1,1-6.5,3.2h-0.1v-2.7H116
			L116,43.7z M110.6,29.7c0-4-4.4-5.5-8.5-5.5c-4.7,0-9.3,1.4-9.7,6.4h4.7c0.2-2.1,2.1-3,4.7-3c1.9,0,4.4,0.4,4.4,2.6
			c0,2.5-3,2.1-6.4,2.7c-4,0.4-8.2,1.2-8.2,5.9c0,3.7,3.4,5.6,7.3,5.6c2.6,0.1,5.2-0.7,7.4-2.3c0.4,1.7,1.7,2.3,3.6,2.3
			c1,0,2-0.2,3-0.5v-2.9c-0.4,0.1-0.8,0.1-1.2,0.1c-0.9,0-1.1-0.4-1.1-1.4L110.6,29.7z M105.9,37.3c0,2.7-3.2,3.6-5.3,3.6
			c-1.7,0-4.3-0.6-4.3-2.4c0-2.2,1.8-2.9,3.8-3.2s4.3-0.3,5.8-1.1V37.3z M89.9,26.2c-0.6-5.5-5.7-8.7-12.1-8.8
			c-8.6,0-13.7,6.1-13.7,13.5s5.1,13.5,13.7,13.5c6.9,0,11.8-4.3,12.2-10.4H85c-0.4,3.8-2.8,6.7-7.3,6.7c-6.1,0-8.7-4.9-8.7-9.8
			s2.6-9.8,8.7-9.8c4.2,0,6.3,2.2,7.1,5.1L89.9,26.2z"/>
		<path class="st1" d="M30.2,9.3V17l6.8,3.3h5.6c0,0,1-1.2-0.8-2.2c-1.1-0.2-2.2-0.2-3.3-0.1c-1.1,0.2-1.2-0.9,0.1-0.9h11.3
			c0,0-0.6-7.4-6.8-7.6C36.1,9.2,30.2,9.4,30.2,9.3"/>
		<path class="st1" d="M56.1,29.1v-7.7l-6.8-3.3h-5.6c0,0-1,1.2,0.8,2.2c1.1,0.2,2.2,0.3,3.3,0.2c1.1-0.2,1.2,0.9-0.1,0.9H36.4
			c0,0,0.6,7.4,6.8,7.6C50.2,29.3,56.1,29.1,56.1,29.1"/>
		<path class="st1" d="M30.2,52.1v-7.7l6.8-3.3h5.6c0,0,1,1.2-0.8,2.2c-1.1,0.2-2.2,0.3-3.3,0.2c-1.1-0.2-1.2,0.9,0.1,0.9h11.3
			c0,0-0.6,7.3-6.8,7.6C36.1,52.2,30.2,52.1,30.2,52.1"/>
		<path class="st1" d="M56.1,32.3V40l-6.8,3.3h-5.6c0,0-1-1.2,0.8-2.2c1.1-0.2,2.2-0.3,3.3-0.2c1.1,0.2,1.2-0.9-0.1-0.9H36.4
			c0,0,0.6-7.3,6.8-7.6C50.2,32.1,56.1,32.3,56.1,32.3"/>
		<path class="st1" d="M28.1,9.3V17l-6.8,3.3h-5.6c0,0-1-1.2,0.8-2.2c1.1-0.2,2.2-0.2,3.3-0.1c1.1,0.2,1.1-0.9-0.1-0.9H8.4
			c0,0,0.6-7.4,6.8-7.6C22.1,9.2,28.1,9.4,28.1,9.3"/>
		<path class="st1" d="M2.1,29.1v-7.7l6.8-3.3h5.6c0,0,1,1.2-0.8,2.2c-1.1,0.2-2.2,0.3-3.3,0.2c-1.1-0.2-1.2,0.9,0.1,0.9h11.3
			c0,0-0.6,7.4-6.8,7.6C8,29.3,2.1,29.1,2.1,29.1"/>
		<path class="st1" d="M28.1,52.1v-7.7l-6.8-3.3h-5.6c0,0-1,1.2,0.8,2.2c1.1,0.2,2.2,0.3,3.3,0.2c1.1-0.2,1.1,0.9-0.1,0.9H8.4
			c0,0,0.6,7.3,6.8,7.6C22.1,52.2,28.1,52.1,28.1,52.1"/>
		<path class="st1" d="M2.1,32.3V40l6.8,3.3h5.6c0,0,1-1.2-0.8-2.2c-1.1-0.2-2.2-0.3-3.3-0.2c-1.1,0.2-1.2-0.9,0.1-0.9h11.3
			c0,0-0.6-7.3-6.8-7.6C8,32.1,2.1,32.3,2.1,32.3"/>
	</g>
</g>
</svg>
