<?xml version="1.0" encoding="utf-8"?>
<!-- Generator: Adobe Illustrator 24.1.3, SVG Export Plug-In . SVG Version: 6.00 Build 0)  -->
<svg version="1.1" id="Layer_1" xmlns="http://www.w3.org/2000/svg" xmlns:xlink="http://www.w3.org/1999/xlink" x="0px" y="0px"
	 viewBox="0 0 398 116" style="enable-background:new 0 0 398 116;" xml:space="preserve">
<style type="text/css">
	.st0{fill:#FFFFFF;}
</style>
<path class="st0" d="M8.1,22c0.2-1,0.5-2,0.8-3c1.1-2.9,3.4-4.4,6.3-5c1.3-0.3,2.7-0.4,4-0.4c21.8,0,43.6,0,65.5,0
	c5.6,0,9.3,3.6,9.4,9.4c0.1,10.1,0,20.3,0,30.4c-0.1,1.3-0.2,2.6-0.4,3.8c0,0.3-0.1,0.6-0.3,0.8c-0.9,0.6-0.8,1.5-0.8,2.4
	c0.2,0.9,0,1.8-0.5,2.6c-0.1,0.3-0.2,0.6-0.2,0.9c0,2,0,4,0,6.1H89l-0.9-4.8H88c-0.2,1-0.4,2-0.5,2.9c-0.3,1.9-0.3,1.9-2.3,1.9H84
	v-1.2c0-9.4,0-18.9,0-28.3c0-0.3,0.1-0.8-0.1-1c-1-1.3-0.8-2.8-0.8-4.3c0-0.3,0-0.7-0.2-0.9c-1.1-1-1-2.4-1.1-3.7
	c-0.3-2.1-0.4-4.3-0.8-6.5c-0.2,1.9-0.3,3.9-0.6,5.8c-0.2,1.5,0.2,3.2-1.2,4.4c-0.2,0.1-0.1,0.5-0.1,0.7c-0.1,1.5,0.2,2.9-0.7,4.3
	c-0.3,0.5-0.1,1.4-0.1,2.2c0,0.9,0,1.8,0,2.9H63.1c0-1.3,0-2.6,0-4c0.1-0.7-0.2-1.3-0.7-1.7c-0.7-0.4-1-1.2-0.8-2
	c0.3-1.5-0.5-2.8-0.8-4.3c-0.2-1.1-0.3-2.2-0.4-3.3c-0.2-1.9-0.3-3.8-0.5-5.7c-0.2,1.8-0.3,3.6-0.5,5.4c-0.1,1.2-0.1,2.3-0.2,3.5
	c0,0.3-0.1,0.5-0.2,0.7c-1,1.2-0.7,2.6-0.8,3.9c0,0.5-0.2,1-0.6,1.4c-0.7,0.6-1,1.5-0.9,2.3c0,9.3,0,18.7,0,28V70h-3l-0.9-4.9h-0.2
	l-1,4.9h-3c0-1.7,0-3.4,0-5.2c0-0.9-0.1-1.9-0.5-2.7c-0.2-0.9-0.3-1.7-0.3-2.6c-0.1-0.5-0.4-0.9-0.5-1.4c-0.2-0.8-0.4-1.6-0.5-2.5
	c-0.2-1.8-0.3-3.6-0.4-5.4c-0.1-0.2-0.1-0.4-0.2-0.5c-0.1,1.1-0.2,2-0.3,2.9c-0.1,1.6-0.3,3.2-0.4,4.7c0,0.1,0,0.3-0.1,0.4
	c-1,1-0.6,2.3-0.7,3.5c0,0.3,0,0.6-0.2,0.8c-0.6,0.9-0.8,2-0.7,3.1c0,6.9,0,13.7,0,20.6c0.1,0.7-0.3,1.4-0.9,1.8
	c-1.1,0.6-1.7,1.8-1.6,3c0.1,3.7,0,7.5,0,11.4h-1c-7.8,0-15.6,0.1-23.5,0c-3.4,0.1-6.5-2-7.8-5.1c-0.5-1.3-0.9-2.5-1.2-3.9V22z"/>
<path class="st0" d="M281.1,5.9v17.2c0.7-0.7,1.3-1.3,2-1.9c2.5-1.9,5.6-2.8,8.7-2.3c5.5,0.8,8.8,4.2,10.2,9.3
	c1.5,5.5,1.2,10.9-1.8,15.8c-2.1,3.5-5.7,5.8-9.8,6.2c-2.8,0.4-5.7-0.3-7.9-2c-0.9-0.8-1.8-1.7-2.7-2.7c-0.1,1.3-0.2,2.6-0.3,4h-8
	c0.1-1.1,0.2-2.2,0.2-3.3c0-12.3,0-24.6,0-36.9c0-1.3,0-1.3,1.4-1.6c2.5-0.6,5-1.2,7.5-1.7c0.1,0,0.2-0.1,0.3-0.2L281.1,5.9z
	 M281,34.3c0,1.4,0.1,2.8,0.3,4.2c0.4,2.5,2.4,4.3,4.9,4.5c2.5,0.4,5-1,6-3.4c0.9-2,1.3-4.2,1-6.3c-0.1-1.7-0.7-3.4-1.6-4.8
	c-1.2-1.8-3.4-2.6-5.5-2.2c-2.2,0.3-4,1.9-4.5,4C281.3,31.6,281.1,32.9,281,34.3z"/>
<path class="st0" d="M391,20.1l-4.4,12.2c-2.2,6.1-4.2,12.3-7,18.2c-1.3,3-3.2,5.8-5.4,8.2c-2.5,2.3-5.5,4-8.8,4.6
	c-0.6,0.1-1,0-1.1-0.8c-0.5-2.1-1-4.2-1.6-6.3c-0.2-0.7-0.1-0.8,0.6-1c3-0.8,5.5-2.6,7.2-5.2c0.5-0.9,0.5-2.1,0-3
	c-2.8-6.9-5.6-13.8-8.3-20.7l-2.4-6c-0.1-0.2-0.1-0.5-0.2-0.8h10.4c2,6.7,4,13.5,6.1,20.3c0.4-1.4,0.7-2.8,1.1-4.2
	c1-3.9,1.9-7.9,2.9-11.8c0.3-1.2,0.7-2.4,0.9-3.6c0.1-0.7,0.5-0.8,1.1-0.8c3,0,6.1,0,9.1,0L391,20.1z"/>
<path class="st0" d="M161.9,109.8l-0.8-2.1c1.6-1,3.2-2.1,4.6-3.2c2.6-2.3,4.5-5.3,5.6-8.6c0.1-0.6,0-1.3-0.3-1.9
	c-1.9-4.9-3.9-9.8-5.9-14.7c-1.5-3.8-3.1-7.7-4.6-11.5c-0.1-0.2-0.2-0.5-0.3-0.8h3.1l10,25.2c0.9-2.5,1.8-5.2,2.8-7.8
	c1.8-4.7,3.6-9.4,5.3-14.1c0.4-0.9,0.7-1.9,1.1-2.8c0.1-0.3,0.4-0.4,0.6-0.5c0.9-0.1,1.7,0,2.7,0l-3,7.4c-1.8,4.4-3.5,8.8-5.3,13.1
	s-3.7,8.9-5.8,13.2c-1.8,3.9-5,7.1-9,8.8c-0.1,0.1-0.2,0.2-0.4,0.3L161.9,109.8z"/>
<path class="st0" d="M334.6,19.8v30h-2.7c-1.5,0-3.1,0-4.6,0c-0.6,0-0.8-0.2-0.8-0.8c0-0.8-0.1-1.7-0.2-2.6
	c-0.1-0.3-0.2-0.6-0.3-0.9c-1.4,2.1-3.5,3.7-5.9,4.4c-4.1,1.1-7.9,0.7-11-2.4c-1.8-1.7-2.8-4.1-2.9-6.6c-0.2-7.1,0-14.1,0-21.3h9.2
	v1c0,5.2,0,10.3,0,15.5c0.1,1.3,0.3,2.6,0.7,3.9c0.4,1.5,1.7,2.6,3.3,2.7c1.7,0.3,3.4-0.4,4.5-1.8c0.8-0.9,1.2-2.1,1.1-3.3
	c0-6,0-11.9,0-18L334.6,19.8z"/>
<path class="st0" d="M165.8,19.7h7.9l0.5,3.9c1-1,2-1.9,3.1-2.8c4.3-2.9,10.7-2.6,14.3,1.5c1.6,1.7,2.5,3.9,2.6,6.3
	c0.2,7,0.2,13.9,0.2,20.9c0,0.1,0,0.1-0.1,0.2H185v-1c0-5.6,0-11.1,0-16.7c0-1.5-0.4-2.9-1.4-4c-1.8-1.9-4.7-2-6.6-0.2
	c-0.4,0.4-0.7,0.8-1,1.3c-0.5,0.9-0.7,2-0.8,3c-0.1,5.5,0,11,0,16.6v1.1h-9.5L165.8,19.7z"/>
<path class="st0" d="M161.8,49.7h-5.9c-0.8,0-1.8,0.3-2.3-0.1s-0.4-1.4-0.6-2.2c0-0.1-0.1-0.3-0.2-0.4c-1.3,1-2.7,1.8-4.1,2.5
	c-4.1,1.8-9,1.1-11.9-2c-2-2.1-2.9-5-2.4-7.9c0.8-5.4,4.5-7.9,9.3-9c2.5-0.5,5.1-0.8,7.7-1h0.4c0.6-2.4-1.5-3.9-3.8-4.2
	c-3.4-0.3-6.9,0.5-9.8,2.2c-0.6-2-1.1-4-1.7-6c1.8-1.1,3.8-1.8,5.9-2.1c2.3-0.4,4.6-0.6,6.9-0.6c3.4,0.1,6.6,0.9,9.1,3.6
	c1.8,1.8,2.8,4.3,2.9,6.8c0.2,5.5,0.2,11,0.3,16.4C161.5,47.1,161.7,48.3,161.8,49.7z M152.4,35.5c-1.5,0.1-2.7,0.1-3.9,0.3
	c-1.6,0.1-3,0.9-4.1,2c-1.4,1.8-1,4.8,1.1,5.6c2.5,1,5.4-0.1,6.4-2.7c0-0.1,0.1-0.2,0.1-0.3C152.3,38.8,152.4,37.1,152.4,35.5z"/>
<path class="st0" d="M246.4,37.7H227c0.1,1.6,0.9,3.1,2.3,4c1.6,1.1,3.6,1.7,5.5,1.7c3,0.1,6.1-0.3,9-1.2c0.2,1,0.4,1.9,0.6,2.8
	s0.4,1.8,0.5,2.7c0.1,0.6,0,0.9-0.6,1.1c-2.8,0.9-5.7,1.4-8.6,1.5c-2.6,0.1-5.2-0.1-7.7-0.8c-5.1-1.5-8.8-5.8-9.6-11
	c-0.6-3.3-0.3-6.7,0.8-9.8c1.8-5,5.3-8.3,10.6-9.5c3.7-1,7.6-0.4,10.9,1.5c3.3,2,5,5.2,5.8,9C246.8,32.4,246.8,35.1,246.4,37.7z
	 M227,31.3h11c-0.3-4.7-2.7-6.5-6.3-6C229.1,25.6,227,28.3,227,31.3z"/>
<path class="st0" d="M200.5,26.6h-4v-6.9h3.9v-6.6l9.2-2.1v8.7h6.6v6.9h-6.6c0,1.3,0,2.5,0,3.7c0.1,3,0.1,6,0.2,9.1
	c0.1,2,1.3,3.5,3.4,3.3c0.9-0.1,1.9,0,2.9,0v7.1c-3.5,0.7-7,1.2-10.5-0.2c-2.9-1.2-4.3-3.6-4.8-6.7c-0.6-3.8-0.3-7.7-0.4-11.5
	C200.5,29.8,200.5,28.3,200.5,26.6z"/>
<path class="st0" d="M131.3,27c-2.5-0.9-5.3-1.1-7.9-0.5c-2.7,0.8-4.7,3.1-5.2,5.9c-0.5,2.2-0.2,4.5,0.8,6.6c1,2,3,3.4,5.2,3.8
	c2.5,0.4,5,0.2,7.4-0.7l0.8,4.6c0,0.5,0.1,1,0.2,1.5c0.3,0.8-0.1,1-0.7,1.1c-1.4,0.4-2.9,0.7-4.3,0.9c-4.5,0.3-9,0.2-12.9-2.4
	c-3.4-2.2-5.6-5.8-6-9.8c-0.6-3.4-0.2-6.8,1.2-10c1.7-3.7,4.8-6.6,8.7-7.9c2.7-1,5.6-1.3,8.5-1.1c1.7,0.2,3.5,0.5,5.2,0.9
	c0.5,0.1,0.7,0.4,0.5,1C132.2,22.9,131.8,24.9,131.3,27z"/>
<path class="st0" d="M80.7,101.8H60.8v-3.6c0-2.2-0.1-4.3,0-6.5c0.2-4.8,1.8-9,5.4-12.3c1.1-0.8,2.2-1.6,3.4-2.3
	c0.7-0.5,1.7-0.5,2.4,0.1c4.4,2.3,7.4,6.6,8.2,11.5C81,92.9,80.6,97.3,80.7,101.8z"/>
<path class="st0" d="M268.9,27.8c-2.3-0.1-4.4-0.4-6.4,0.9c-1.6,1-2.6,2.8-2.6,4.7c0,5.1,0,10.1,0,15.2v1.1h-9.5V19.8h7.9
	c0.1,1.8,0.2,3.5,0.3,5.5c0.5-0.9,0.9-1.7,1.3-2.4c1.7-2.8,4.9-4.3,8.1-4c0.3,0,0.8,0.4,0.8,0.6C268.9,22.3,268.9,25.1,268.9,27.8z"
	/>
<path class="st0" d="M338.7,49.7V19.7h7.9c0.1,1.8,0.2,3.6,0.3,5.5c0.6-1.1,1.3-2.1,2-3.1c1.8-2.3,4.8-3.5,7.7-3.2
	c0.3,0.1,0.5,0.3,0.6,0.6c0,2.8,0,5.5,0,8.3c-2.5-0.2-5-0.5-7.1,1.4c-1.3,1.1-2,2.7-2,4.4c0,5,0,10,0,14.9v1.1H338.7z"/>
<path class="st0" d="M234.2,97.1c-6.6,0.1-11.5-4.4-13-10.5c-1.2-4.4-0.7-9,1.4-13c2-4.1,6-6.9,10.6-7.2c3.1-0.4,6.1,0.3,8.7,1.9
	c3,1.9,5.1,5,5.8,8.5c1,3.8,0.7,7.9-0.7,11.5c-1.7,4.5-5.7,7.8-10.4,8.5C235.8,97,235,97,234.2,97.1z M223.7,81.7
	c-0.1,3.7,1.2,7.4,3.8,10.1c4,3.8,10.3,3.7,14.1-0.2c0.4-0.4,0.7-0.8,1-1.2c2.4-3.3,3.3-7.5,2.5-11.4c-0.3-2.6-1.5-5-3.2-6.9
	c-2.2-2.4-5.5-3.6-8.7-3.1c-3,0.3-5.6,1.9-7.2,4.5C224.4,75.8,223.6,78.7,223.7,81.7L223.7,81.7z"/>
<path class="st0" d="M283.2,96.4h-2.9V67h2.5c0.1,1.6,0.2,3.3,0.3,5.1c0.9-1.7,2.3-3.2,4-4.2c4.3-2.6,9.9-2.2,13.4,1.3
	c1.6,1.6,2.6,3.8,2.8,6.1c0.3,3.4,0.3,6.8,0.4,10.2c0.1,3.6,0,7.2,0,10.9h-3.1v-1c0-5.8,0-11.6,0-17.3c0.1-2.4-0.7-4.8-2.1-6.7
	c-1-1.3-2.4-2.1-4-2.4c-3.1-0.7-6.4,0.4-8.5,2.8c-1.7,1.8-2.7,4.2-2.7,6.7c0,5.6,0,11.3,0,16.9L283.2,96.4z"/>
<path class="st0" d="M271.5,67h2.9v29.4H272l-0.3-5.2c-0.3,0.4-0.6,0.7-0.8,1c-3,4.3-8.5,5.9-13.3,4c-2.5-1-4.4-3.2-5.1-5.8
	c-0.6-1.9-0.9-3.9-1-5.9c-0.1-5.6,0-11.3,0-16.9c0-0.2,0-0.3,0-0.5h3v1c0,5.8-0.1,11.6,0,17.3c0,2.4,0.7,4.7,2.1,6.6
	c0.9,1.2,2.3,2,3.8,2.3c4.4,0.8,8.8-1.6,10.5-5.8c0.4-1.1,0.6-2.3,0.6-3.5c0.1-5.6,0-11.2,0-16.8L271.5,67z"/>
<path class="st0" d="M130.7,70.5c-2.7-1.6-5.8-2.1-8.9-1.6c-4.3,0.4-7.9,3.4-9.1,7.5c-1.3,3.6-1.3,7.6,0.2,11.2c1.5,3.8,5,6.4,9,6.7
	c3,0.3,6.1-0.2,8.8-1.6l0.9,2.4c-1.5,0.5-3,1-4.5,1.3c-4.1,0.9-8.2,0.7-11.9-1.6c-3.3-2-5.5-5.4-6.1-9.2c-0.8-3.4-0.5-7,0.8-10.2
	c1.5-4.2,5-7.4,9.3-8.6c3.9-1.2,8-0.9,11.7,0.8c0.6,0.3,0.7,0.5,0.4,1.1S131,69.8,130.7,70.5z"/>
<path class="st0" d="M330.6,68.1c-0.3,0.8-0.7,1.5-1,2.4c-2.3-1.3-5-1.8-7.6-1.6c-4.7,0-8.9,3-10.3,7.5c-1.5,3.9-1.3,8.2,0.6,12
	c1.6,3.4,4.9,5.7,8.7,6c3,0.3,5.1,0,8.8-1.5l0.9,2.4c-1.5,0.4-2.9,1-4.4,1.3c-3.8,1-7.8,0.6-11.3-1.2c-2.8-1.5-4.9-3.9-5.9-6.9
	c-1.8-4.5-1.6-9.6,0.4-14c1.5-3.4,4.3-6,7.8-7.2c4.3-1.6,9-1.4,13.1,0.7L330.6,68.1z"/>
<path class="st0" d="M218.4,68.1l-1,2.2c-1.5-0.5-3-0.9-4.6-1.3c-6.9-1-12.5,2-14.1,9.5c-0.8,3.5-0.3,7.2,1.4,10.4
	c1.7,3.2,4.9,5.2,8.4,5.5c3,0.3,6.1-0.3,8.9-1.6l0.8,2.4c-1.4,0.4-2.9,1-4.4,1.3c-3.5,0.9-7.3,0.6-10.6-0.9c-3.1-1.4-5.4-4-6.6-7.1
	c-1.8-4.4-1.7-9.4,0.3-13.7c1.8-4.3,5.8-7.5,10.4-8.2c3.3-0.7,6.8-0.3,9.9,1C217.7,67.7,218,67.8,218.4,68.1z"/>
<path class="st0" d="M157,94.2l0.3,2.1c-1.9,0.7-4,0.9-6,0.5c-2.3-0.5-4.1-2.4-4.5-4.7c-0.3-1.2-0.4-2.5-0.4-3.8
	c0-5.9,0-11.9,0-17.8v-1.2h-4.9V67h4.9v-5.5l2.9-1V67h8.4v2.3h-8.4v1.1c0,5.9,0,11.9,0,17.8c0,1.1,0.2,2.2,0.4,3.3
	c0.3,1.9,2,3.3,3.9,3.1C154.7,94.5,155.8,94.3,157,94.2z"/>
<path class="st0" d="M347.7,96.4h-2.8V53.8h2.8V96.4z"/>
<path class="st0" d="M135.7,67h3v29.4h-3V67z"/>
<path class="st0" d="M339.1,96.4h-2.8V67h2.8V96.4z"/>
<path class="st0" d="M337.6,61c-1.3,0-2.4-1.1-2.4-2.4c0,0,0,0,0,0c0-1.3,1-2.5,2.3-2.7c1.4,0.1,2.5,1.2,2.5,2.6
	C340.1,59.9,339.1,61,337.6,61C337.7,61,337.7,61,337.6,61z"/>
<path class="st0" d="M134.8,58.6c-0.1-1.3,0.9-2.5,2.3-2.6c0,0,0,0,0.1,0c1.4,0.1,2.4,1.4,2.3,2.8c-0.1,1.2-1.1,2.2-2.3,2.3
	c-1.2,0.1-2.3-0.9-2.3-2.1C134.8,58.8,134.8,58.7,134.8,58.6z"/>
</svg>
