<?xml version="1.0" encoding="utf-8"?>
<!-- Generator: Adobe Illustrator 24.1.3, SVG Export Plug-In . SVG Version: 6.00 Build 0)  -->
<svg version="1.1" id="Layer_1" xmlns="http://www.w3.org/2000/svg" xmlns:xlink="http://www.w3.org/1999/xlink" x="0px" y="0px"
	 viewBox="0 0 231.3 86.8" style="enable-background:new 0 0 231.3 86.8;" xml:space="preserve">
<style type="text/css">
	.st0{fill:#FFFFFF;}
</style>
<path class="st0" d="M227.5,25.8l-15-12.9c-13.7,13.5-26,17.5-34.5,16.1c-11.6-2-20-5-44,0.5c9.9-9.7,18.9-12.6,25.1-11.5
	c8.6,1.4,14.8,3.7,32.8-0.5l-10.3-8.9c-11.7,11-20.1,9.5-22.4,9.2c-12.1-2.6-24.6-1.7-36.2,2.4c7.6-7.5,14.5-9.7,19.3-8.9
	c6.6,1.1,11.3,2.8,25.1-0.3l-7.9-6.8c-9,8.4-15.4,7.3-17.2,7c-9.3-2-19-1.3-27.9,1.9l33.2,28.6c15.9-14.9,27.4-12.9,30.5-12.4
	C194.5,32.7,211.6,31.5,227.5,25.8"/>
<path class="st0" d="M33.6,57.2c-2.3,0.1-4.6,0.3-6.8,0.7c0,0.2-0.6,4.7-0.7,5.1c2.2-0.6,4.4-1,6.6-1.1c2.7,0,5.5,0.5,6.2,4.2v0.2
	l-4.5-0.1c-5.3,0-10.7,2.8-10.7,8.1c0,7.2,7.5,8.3,11.9,8.3c3.1,0,6.3-0.2,9.4-0.7V68.6C44.9,61.2,41,57.2,33.6,57.2 M38.8,77.6
	c-0.9,0.1-1.9,0.2-2.8,0.2c-4,0-6-1.4-6-3.4c0-1.6,1.6-3.3,5-3.3c1.4,0,2.7,0.1,3.8,0.1L38.8,77.6z"/>
<path class="st0" d="M74.2,57.2c-2.7,0-5.3,0.6-7.7,1.7h-0.1h-0.1c-2.1-1.2-4.6-1.8-7-1.7c-3.5,0.1-7,0.5-10.4,1.3v23.7h6V62.9h0.1
	c1.3-0.3,2.7-0.5,4.1-0.6c3.3,0,4.9,1.4,4.9,4.3v15.8h6v-16c0-1-0.1-2-0.3-3v-0.1h0.1c1.2-0.6,2.5-0.8,3.8-0.9c3.4,0,5.5,2,5.5,5.2
	v14.8h6.2v-15C85.3,60.9,81.3,57.2,74.2,57.2"/>
<path class="st0" d="M97.4,57.2c-0.7,0-1.5,0-2.2,0.1H95V46.7l-6,0.7v34.1c2.6,0.8,5.2,1.2,7.9,1.2c9.4,0,15-5.1,15-13.6
	C111.9,63.6,108.1,57.2,97.4,57.2 M97.6,77.4c-0.8,0-1.6-0.1-2.4-0.2h-0.1V62.5h0.1c0.6-0.1,1.2-0.1,1.8-0.1c5.3,0,8.7,2.7,8.7,6.9
	C105.7,74.3,102.6,77.5,97.6,77.4"/>
<path class="st0" d="M126.7,57.2c-7.2,0-12.2,5.1-12.2,12.4c0,9.1,7.4,13.2,14.2,13.2c2.3,0,4.5-0.2,6.8-0.7c0-0.2,0.6-5.1,0.7-5.6
	c-2.3,0.8-4.7,1.2-7.1,1.3c-4.6,0-8.1-2.8-8.4-6.8V71h16.9c0-0.1,0-0.6,0-0.6C137.7,62.2,133.6,57.2,126.7,57.2 M121.2,66.5l0.1-0.2
	c0.5-2.4,2.7-4.2,5.2-4.2c2.4,0,4.1,1.5,4.7,4.2v0.2L121.2,66.5z"/>
<path class="st0" d="M147.3,73.1V62.6h8.1c0-0.3,0.2-4.4,0.2-4.7h-8.3v-6.2l-6.1,0.6v21.4c0,8.3,8.1,9,10.6,9c1.1,0,2.3-0.1,3.4-0.4
	c0-0.2,0.7-4.7,0.8-5.1c-1.1,0.3-2.3,0.5-3.5,0.5C150.9,77.7,147.3,77.2,147.3,73.1"/>
<path class="st0" d="M172.1,57.3c-2.5,0.1-4.9,1-6.8,2.7l-0.3,0.2V46.7l-6.1,0.7v34.9h6.1V65.4h0.1c1.4-1.4,3.6-3,5.8-3
	c2.5,0,3.9,1.6,3.9,4.4v15.5h6.1V65.8C180.9,60.7,177.4,57.3,172.1,57.3"/>
<path class="st0" d="M10.4,49.8l-6.2,0.7v31.7h17.1c0-0.3,0.4-4.9,0.4-5.2H10.4V49.8z"/>
</svg>
