<?xml version="1.0" encoding="utf-8"?>
<!-- Generator: Adobe Illustrator 24.1.3, SVG Export Plug-In . SVG Version: 6.00 Build 0)  -->
<svg version="1.1" id="Layer_1" xmlns="http://www.w3.org/2000/svg" xmlns:xlink="http://www.w3.org/1999/xlink" x="0px" y="0px"
	 viewBox="0 0 146.9 136.6" style="enable-background:new 0 0 146.9 136.6;" xml:space="preserve">
<style type="text/css">
	.st0{fill:#FFFFFF;}
	.st1{clip-path:url(#SVGID_2_);}
	.st2{clip-path:url(#SVGID_4_);}
</style>
<polygon class="st0" points="6.3,115.2 6.3,136.3 20.3,136.3 20.3,132.9 11.1,132.9 11.1,115.2 "/>
<g>
	<defs>
		<rect id="SVGID_1_" x="2.1" y="3.7" width="142.6" height="133"/>
	</defs>
	<clipPath id="SVGID_2_">
		<use xlink:href="#SVGID_1_"  style="overflow:visible;"/>
	</clipPath>
	<g class="st1">
		<path class="st0" d="M31.5,127.2l-5,0.3c0.2-2.5,1-3.8,2.6-3.8S31.4,124.7,31.5,127.2 M35.5,129.5V129c0-5.6-2.2-8.1-6.7-8.1
			s-7,3.4-7,8.1c0,4.9,2.6,7.6,6.5,7.6c2.4-0.1,4.7-0.7,6.9-1.7l-0.8-2.6c-1.6,0.5-3.2,0.8-4.9,0.9c-2,0-3-0.9-3-3.3v-0.4
			L35.5,129.5z"/>
	</g>
</g>
<polygon class="st0" points="56.1,121.2 53.7,132.4 51.2,121.2 46.5,121.2 43.9,132.4 41.7,121.2 37.4,121.2 41.1,136.3 45.8,136.3 
	48.4,124.6 51,136.3 55.8,136.3 59.5,121.2 "/>
<g>
	<defs>
		<rect id="SVGID_3_" x="2.1" y="3.7" width="142.6" height="133"/>
	</defs>
	<clipPath id="SVGID_4_">
		<use xlink:href="#SVGID_3_"  style="overflow:visible;"/>
	</clipPath>
	<g class="st2">
		<path class="st0" d="M66.8,121.2h-4.6v15.1h4.6V121.2z M67,116.5c0-1.4-1.1-2.5-2.5-2.5s-2.5,1.1-2.5,2.5c0,1.4,1.1,2.5,2.5,2.5
			c0,0,0,0,0,0C65.9,118.9,67,117.8,67,116.5"/>
		<path class="st0" d="M82.2,131.3c0-5.5-7.3-3.3-7.3-6c0-0.9,0.9-1.4,2.3-1.4c1.3,0,2.6,0.2,3.8,0.5l0.5-2.7
			c-1.7-0.5-3.4-0.7-5.1-0.8c-3.8,0-6,1.7-6,4.9c0,2.7,1.8,3.8,4.8,4.5c2.2,0.5,2.5,0.7,2.5,1.7s-0.9,1.5-2.8,1.5
			c-1.4,0-2.8-0.2-4.1-0.5l-0.6,2.9c1.7,0.4,3.4,0.7,5.2,0.7C79.8,136.6,82.2,134.7,82.2,131.3"/>
		<path class="st0" d="M99.5,136.3v-9.5c0-2.4-0.2-3.3-0.7-4.2c-0.7-1.1-2-1.8-3.3-1.7c-1.8,0.1-3.6,0.6-5.2,1.5v-8.5h-4.6v22.4h4.6
			v-11.2c0.9-0.3,1.8-0.5,2.8-0.5c1.6,0,1.9,0.9,1.9,2.6v9.1H99.5z"/>
		<path class="st0" d="M111.4,133c-0.7,0.2-1.4,0.4-2.2,0.4c-1,0-1.8-0.6-1.8-2s1.1-2.2,4-2.3L111.4,133z M115.8,136.3v-8.7
			c0-2.9-0.2-4-0.7-5s-2-1.7-4-1.7c-2.3,0.1-4.7,0.5-6.9,1.2l0.4,2.6c1.4-0.3,2.8-0.5,4.3-0.5c2.3,0,2.6,0.6,2.6,2.5v0.4
			c-3.2,0-5.9,0.2-7.3,1.5c-0.8,0.9-1.2,2.1-1.1,3.4c0,3,1.6,4.7,3.9,4.7c1.7-0.2,3.3-0.8,4.6-1.8v1.4L115.8,136.3z"/>
		<path class="st0" d="M141,136.3V127c0-2.9-0.1-6.1-3.8-6.1c-1.8,0.1-3.5,0.8-5,1.8c-0.6-1.2-1.9-1.9-3.2-1.8
			c-1.7,0.1-3.3,0.7-4.7,1.6v-1.3h-4.1v15.1h4.4v-11.2c0.7-0.3,1.4-0.5,2.1-0.5c1.8,0,1.6,1.7,1.6,3.3v8.4h4.4v-11.2
			c0.7-0.3,1.4-0.5,2.1-0.5c1.8,0,1.6,1.7,1.6,3.3v8.4L141,136.3z"/>
		<path class="st0" d="M44.7,81.1l1-0.1h0.4L44.7,81.1z"/>
		<path class="st0" d="M102.4,81.1L102.4,81.1c-9.6-0.9-20.1-1.3-28.8-1.3c-8.4,0-18.5,0.4-27.9,1.3l-1,0.1
			c-15.5,1.4-28.9,3.7-28.9,6.5c0,0.3,0.2,0.7,0.4,0.9C20.1,93,52.4,96,73.6,96s53.3-2.9,57.2-7.4l0,0c0.2-0.2,0.4-0.6,0.4-0.9
			C131.2,84.8,117.9,82.5,102.4,81.1"/>
		<path class="st0" d="M9.9,29.2c0.5-0.8,0.8-1.7,1.1-2.7c0.7-2.3,0.4-4.8-0.6-6.9c-1.5-3.2-4.7-5.3-8.3-5.4L4,26.5L4.7,31l0.5,2.1
			C7.2,32.4,8.8,31,9.9,29.2"/>
		<path class="st0" d="M101.2,22.5c2.4-1.4,4.3-3.6,5.1-6.3c0.8-3.2,0.1-6.5-1.9-9.1c-2.6-2.7-5.9-4.2-9.6-3.1c-3,0.7-5.7,3.9-6.5,7
			c-0.9,3.4,0.1,7.1,2.6,9.6C93.6,23.2,97.8,24.3,101.2,22.5"/>
		<path class="st0" d="M51.4,23.3c3.6-0.6,6.6-4.3,7.3-7.8c0.5-3.1-0.4-6.2-2.4-8.5c-2.1-2.3-5.2-3.4-8.3-3
			c-3.4,0.5-6.6,3.6-7.6,7.1c-0.7,3.2,0.1,6.6,2.2,9.1C44.8,22.7,48.1,23.9,51.4,23.3"/>
		<path class="st0" d="M126.8,37.6l-2.3,16.2l-1.4,9.8l-1,0.9c-4.5-1-9.2-1.6-13.7-2.5l-0.9-1l0.6-7.2l1.8-21.3
			c2.2-2.2,4.7-4.2,7.3-6l0,0c0.9-0.6,1.8-1.3,2.6-2l1.3,2l5.7,8.5L126.8,37.6z M113.8,75.8l-4.2-5.2l4.7-3.9
			c1.6,1.5,2.6,3.6,4.2,5.3L113.8,75.8z M92.9,73.2L89,68.4l4.4-4.2l4.1,4.9L92.9,73.2z M81.8,53.8l-0.2,5c-0.1,0.3-0.3,0.5-0.5,0.7
			h-15l-0.7-0.7l-0.2-5l-1-24.5l2.7-2.8l6.5-6.8l6.5,6.7l3,3.1L81.8,53.8z M73.9,72.2l-4.6-4.4l4.3-4.4l4.5,4.4L73.9,72.2z
			 M54.8,73.1L49.9,69l4.1-4.8l4.7,4.2L54.8,73.1z M39.1,62.1l-12,2.1c-0.9,0.2-2.2,0.3-2.6-0.7c-0.4-3.3-1-6.5-1.5-9.7
			c-1.1-6.1-2.2-12.2-2.9-18.5l5.8-8.8l1.3-1.9c0.8,0.7,1.6,1.3,2.5,1.9l0,0c2.6,2,5.3,3.9,7.7,6.1l2,21.2l0.7,7.6L39.1,62.1z
			 M34.3,75.7c-1.7-0.9-3.2-2.5-5-3.6l3.5-5.2l5,3.7L34.3,75.7z M127.1,18.9l-7.2,5.5c-1.7-2.8-3.8-5.5-5.4-8.3l-13.6,10.5l-4.2,3.2
			h-1.2l-3-3.2L79.7,13l-6.4,6.7L67.3,13L54.5,26.6l-3,3.2h-1.2l-4.2-3.2L32.6,16.1c-1.7,2.8-3.7,5.5-5.4,8.3l-7.2-5.5l-5.2,7.6
			l-8.9,13L7.2,48L8,53.8l2.5,17.9c1.3,1,2.7,1.9,4.1,2.8L12,79.9c0,0.4,0,0.8-0.1,1.2c-0.1,3-0.1,4.9,1.9,6l0.5,0.3
			c-0.6-0.3-0.4-2,0.3-2.7c1.1-1.2,2.6-2.1,4.2-2.5c1.3-0.4,2.7-0.8,4.1-1.1l0,0c13.8-3.3,32.2-4.5,50.6-4.5s36.7,1.1,50.4,4.5l0,0
			c1.4,0.3,2.8,0.7,4.1,1.1c1.6,0.4,3.1,1.2,4.3,2.5c0.7,0.7,0.9,2.4,0.3,2.7l0.5-0.3c2.1-1.2,2.1-3,1.9-6c0-0.4,0-0.8-0.1-1.2
			l-2.6-5.5c1.4-0.9,2.8-1.8,4.1-2.8l2.4-17.9l0.8-5.8l1.3-8.5l-8.9-13L127.1,18.9z"/>
		<path class="st0" d="M138.3,16.8c-2.4,2.5-3.4,6.2-2.6,9.6c0,0.1,0,0.1,0,0.2c0.7,3,3.3,5.9,6.2,6.6l1-6.6l1.8-12.6
			C142.3,14.1,140,15.1,138.3,16.8"/>
	</g>
</g>
</svg>
