<?xml version="1.0" encoding="utf-8"?>
<!-- Generator: Adobe Illustrator 24.1.3, SVG Export Plug-In . SVG Version: 6.00 Build 0)  -->
<svg version="1.1" id="Layer_1" xmlns="http://www.w3.org/2000/svg" xmlns:xlink="http://www.w3.org/1999/xlink" x="0px" y="0px"
	 viewBox="0 0 371.7 67" style="enable-background:new 0 0 371.7 67;" xml:space="preserve">
<style type="text/css">
	.st0{fill:#FFFFFF;}
	.st1{opacity:0.45;fill:#FFFFFF;enable-background:new    ;}
</style>
<polyline class="st0" points="112.7,34.1 95.6,11.6 95.6,31.9 98.3,34.1 91.5,34.1 94.1,31.9 94.1,10 92,7.3 97.2,7.3 112,27.1 
	112,9.5 109.4,7.3 116.1,7.3 113.5,9.5 113.5,34.1 "/>
<path class="st0" d="M136.2,24.6c0,6.7-4.8,9.9-8.9,9.9c-4.9,0-8.9-4-8.9-8.9c0-0.1,0-0.2,0-0.3c0-7,5.3-10,8.9-10
	c5,0.1,8.9,4.2,8.9,9.1C136.2,24.5,136.2,24.6,136.2,24.6 M122.3,24c0,5.3,2.1,9.2,5.4,9.2c2.3,0,4.6-2.1,4.6-7.7
	c0-4.9-1.9-8.9-5.4-8.9C124.5,16.6,122.3,19.2,122.3,24L122.3,24z"/>
<path class="st0" d="M139.1,15.7h5.8v3.8c1.4-2.3,3.1-3.9,5.1-3.9c0.9,0,1.8,0.2,2.6,0.5v4.4l-4-3.3c-1,0.4-3.7,3.1-3.7,6V32
	l2.6,2.1h-8.6l2.6-2.1V17.8"/>
<path class="st0" d="M159.8,17c0,0,0,11.9,0,12.4c0.1,2,0.7,2.9,2.3,2.9c1.4,0,2.7-0.4,3.8-1.2l0.3,0.4c-1.4,1.8-3.5,2.9-5.7,3
	c-3.7,0-4.4-2.4-4.4-5c0-1.4,0-12.5,0-12.5h-2.3v-0.5l6-4.9v4.1h6.3v1.3"/>
<path class="st0" d="M178.8,34.1l2.6-2.2v-9c0-3.4-1-5.2-3.8-5.2c-1.6,0.1-3.1,0.9-4.1,2.2v12l2.6,2.2h-8.8l2.6-2.2V8.6l-2.5-2.1
	h6.1v11.9c1.4-1.4,3.5-3.1,5.8-3.1c3.4,0,5.8,2.2,5.8,7.2V32l2.6,2.2"/>
<path class="st0" d="M194.8,15.7v11.2c0,3.4,1,5.2,3.6,5.2c1.6,0,3.1-0.6,4.3-1.6V17.6l-2-1.9h5.6v16.2l2.7,2.3h-5.5l-0.6-2.1
	c0,0-3.3,2.5-5.8,2.5c-3.6,0-5.9-1.9-5.9-7v-9.7l-2-2"/>
<path class="st0" d="M232.3,34.1l2.5-2.1v-9.3c0-3-0.7-5-3.1-5c-1.4,0-2.7,1-4.1,2.3c0.1,0.6,0.1,1.2,0.1,1.8V32l2.5,2.1h-8.6
	l2.5-2.1v-9.3c0-3.1-0.8-4.9-3.1-4.9c-1.6,0-2.8,1.1-4,2.2v12l2.6,2.1h-8.8l2.6-2.1V17.8l-2.3-2.1h5.8v2.8c0,0,1.4-1.2,2.6-2
	c0.9-0.7,2-1.1,3.2-1.1c2.1,0,3.9,1.4,4.6,3.3c1.1-0.9,2-1.6,3-2.3c0.9-0.6,1.9-1,2.9-1.1c3,0,5.2,2.2,5.2,6.3V32l2.6,2.1"/>
<path class="st0" d="M253.2,15.3c4.3,0,7.6,3.9,7.6,8.9c0,6.2-3.9,10.4-9.6,10.4c-2.2,0-4.4-0.6-6.5-1.5V8.6l-2.5-2.1h6.1v10.7
	C248.4,17.2,251.7,15.3,253.2,15.3 M248.4,32c0.9,0.8,2,1.2,3.2,1.1c3.5,0,5.1-3,5.1-7.9s-1.5-7.6-5-7.6c-1.1,0-2.3,0.3-3.3,0.8
	L248.4,32z"/>
<path class="st0" d="M279.8,30.8c-1.5,2.4-4.2,3.7-7,3.7c-5,0-8.2-4.1-8.2-9.3c0-5.6,3.7-9.9,8.2-9.9c3.8,0,7.1,3.2,7.2,8
	c0,0-7,0-11.8,0c0,0.6,0,0.5,0,1c0,5.3,3.2,7.6,6.5,7.6c1.7,0,3.4-0.5,4.9-1.5 M268.3,22c2.3,0,8.5,0,8.5,0
	c-0.1-2.7-1.6-5.3-4.3-5.3C270.4,16.8,268.8,19,268.3,22L268.3,22z"/>
<path class="st0" d="M282.8,15.7h5.8v3.8c1.4-2.3,3.1-3.9,5.1-3.9c0.9,0,1.8,0.2,2.6,0.5v4.4l-4-3.3c-1,0.4-3.7,3.1-3.7,6V32
	l2.6,2.1h-8.6l2.6-2.1V17.8"/>
<polyline class="st0" points="303.3,32 305.9,34.1 297.1,34.1 299.7,32 299.7,8.6 297.2,6.5 303.3,6.5 "/>
<path class="st0" d="M318.9,34.1c0,0-0.5-2.1-0.5-2c-1.7,1.1-4,2.4-5.3,2.4c-2.7,0.1-4.9-2.1-5-4.8c0-0.1,0-0.1,0-0.2
	c0-2.1,1.1-3.4,3.4-4.4c2.5-1.1,5.1-1.7,6.7-2.5V22c0-3.1-1.4-5.1-3.7-5.1c-0.5,0-0.9,0.1-1.4,0.2l-4.1,4V17
	c1.9-1.1,4.1-1.6,6.3-1.6c1.5-0.1,3,0.3,4.3,1.2c1.5,1.2,2.1,2.8,2.1,5.5v9.8l2.7,2.3 M318.3,24.2c-1.1,0.5-3.1,1.1-4,1.5
	c-1.6,0.8-2.6,1.8-2.6,3.3c-0.1,1.7,1.2,3.2,2.9,3.3c0,0,0.1,0,0.1,0c1.3-0.1,2.5-0.7,3.5-1.5L318.3,24.2z"/>
<path class="st0" d="M337.5,34.1l2.6-2.1v-9c0-3.4-1-5.2-3.8-5.2c-1.6,0-2.7,0.9-4.1,2.2v12l2.6,2.1h-8.8l2.6-2.1V18l-2.6-2.2h6.2
	v2.7c1.3-1.2,3.5-3.1,5.7-3.1c3.4,0,5.8,2.2,5.8,7.2V32l2.6,2.1"/>
<path class="st0" d="M367.5,34.1h-5.6l-0.6-2.1c0,0-2.9,2.4-5.3,2.4c-3.2,0-7.4-2.7-7.4-9s4.1-10.1,9.4-10.1c1,0,2.1,0.2,3.1,0.5
	V8.6l-2.6-2.1h6.3v25.4 M361.1,18.4c-1.1-0.9-2.4-1.5-3.9-1.5c-2.1,0-4.7,1.7-4.7,7.8c0,5.1,2,7.4,5,7.4c1.3-0.1,2.5-0.6,3.5-1.5
	L361.1,18.4z"/>
<path class="st0" d="M102.4,55.7c-1.3,0.6-2.7,1-4.2,1.1c-5,0-6.9-4-6.9-7.9c0-5.2,2.9-8.3,6.9-8.3c1.4,0,2.7,0.3,4,0.8v3.1l-2-2.8
	c-0.6-0.2-1.3-0.4-1.9-0.3c-3.5,0-4.7,3.4-4.7,7.1c0,4.6,1.6,7.7,4.7,7.7c0.8,0,1.5-0.2,2.2-0.6l1.8-3.1"/>
<path class="st0" d="M114.9,51c0,3.9-2.8,5.8-5.2,5.8c-2.9,0-5.3-2.3-5.3-5.2c0-0.1,0-0.1,0-0.2c-0.2-3,2.1-5.7,5.1-5.9
	c0,0,0.1,0,0.1,0c2.9,0,5.2,2.4,5.2,5.3C114.9,50.9,114.9,50.9,114.9,51 M106.7,50.6c0,3.1,1.2,5.4,3.2,5.4c1.4,0,2.7-1.2,2.7-4.5
	c0-2.9-1.1-5.3-3.2-5.3C108,46.2,106.7,47.8,106.7,50.6L106.7,50.6z"/>
<path class="st0" d="M119.9,45.7v6.6c0,2,0.6,3.1,2.1,3.1c0.9,0,1.8-0.4,2.6-1v-7.6l-1.1-1.1h3.3v9.5l1.6,1.3H125l-0.3-1.3
	c-1,0.8-2.2,1.3-3.4,1.5c-2.1,0-3.4-1.1-3.4-4.1v-5.8l-1.2-1.2"/>
<path class="st0" d="M136,56.5l1.5-1.3V50c0-2-0.6-3.1-2.3-3.1c-0.9,0.1-1.8,0.6-2.4,1.3v7.1l1.5,1.3h-5.2l1.5-1.3V47l-1.5-1.3h3.7
	v1.6c0.8-0.7,2-1.8,3.4-1.8c2,0,3.4,1.3,3.4,4.2v5.5l1.5,1.3"/>
<path class="st0" d="M145.8,46.5c0,0,0,7,0,7.3c0,1.2,0.4,1.7,1.4,1.7c0.8,0,1.6-0.3,2.3-0.7l0.1,0.2c-0.8,1.1-2,1.7-3.4,1.8
	c-2.2,0-2.6-1.4-2.6-3c0-0.8,0-7.3,0-7.3h-1.4v-0.3l3.5-2.9v2.4h3.7v0.8"/>
<polyline class="st0" points="153.4,61.7 150.3,61.7 152.9,60.1 154.8,56.4 151,46.9 149.9,45.7 154.6,45.7 153.2,46.9 155.8,53.8 
	158.5,46.9 156.9,45.7 160.6,45.7 159.4,46.9 "/>
<path class="st0" d="M178.6,55.7c-1.3,0.6-2.7,1-4.2,1.1c-5.1,0-6.9-4-6.9-7.9c0-5.2,2.9-8.3,6.9-8.3c1.4,0,2.7,0.3,4,0.8v3.1
	l-2-2.8c-0.6-0.2-1.3-0.4-1.9-0.3c-3.5,0-4.7,3.4-4.7,7.1c0,4.6,1.6,7.7,4.7,7.7c0.8,0,1.5-0.2,2.2-0.6l1.9-3.1"/>
<path class="st0" d="M191.1,51c0,3.9-2.8,5.8-5.2,5.8c-2.9,0-5.3-2.3-5.3-5.2c0-0.1,0-0.1,0-0.2c-0.2-3,2.1-5.7,5.1-5.9
	c0,0,0.1,0,0.1,0c2.9,0,5.2,2.4,5.2,5.3C191.1,50.9,191.1,50.9,191.1,51 M182.9,50.6c0,3.1,1.2,5.4,3.2,5.4c1.4,0,2.7-1.2,2.7-4.5
	c0-2.9-1.1-5.3-3.2-5.3C184.1,46.2,182.9,47.8,182.9,50.6L182.9,50.6z"/>
<path class="st0" d="M196,45.7v6.6c0,2,0.6,3.1,2.1,3.1c0.9,0,1.8-0.4,2.6-1v-7.6l-1.2-1.1h3.3v9.5l1.6,1.3h-3.3l-0.3-1.3
	c-1,0.8-2.2,1.3-3.4,1.5c-2.1,0-3.4-1.1-3.4-4.1v-5.8l-1.2-1.2"/>
<path class="st0" d="M212.2,56.5l1.5-1.3V50c0-2-0.6-3.1-2.3-3.1c-0.9,0.1-1.8,0.6-2.4,1.3v7.1l1.5,1.3h-5.2l1.5-1.3V47l-1.5-1.3
	h3.7v1.6c0.8-0.7,2-1.8,3.4-1.8c2,0,3.4,1.3,3.4,4.2v5.5l1.5,1.3"/>
<path class="st0" d="M223.7,56.8c-3.1,0-5-2.4-5-5.5c-0.1-3,2.3-5.6,5.3-5.7c0.1,0,0.2,0,0.3,0c0.9,0,1.8,0.2,2.6,0.6v2.4l-2.7-2
	c-0.2,0-0.3,0-0.5,0c-1.6,0-3,1.5-3,4.1c0,3.4,2.1,4.6,3.7,4.6c1.1,0,2.1-0.3,3-0.9l0.1,0.1C226.9,55.8,225.4,56.7,223.7,56.8"/>
<path class="st0" d="M232.4,55.3l1.6,1.3h-5.2l1.5-1.3V47l-1.5-1.2h3.6 M231.4,41.2c0.8,0,1.4,0.6,1.4,1.4c0,0.8-0.6,1.4-1.4,1.4
	c-0.8,0-1.4-0.6-1.4-1.4c0,0,0,0,0,0C230,41.8,230.6,41.2,231.4,41.2C231.3,41.2,231.3,41.2,231.4,41.2L231.4,41.2z"/>
<polyline class="st0" points="238.3,55.3 239.8,56.5 234.7,56.5 236.2,55.3 236.2,41.5 234.7,40.3 238.3,40.3 "/>
<path class="st1" d="M47.7,11.4C30.2,4.7,21.6,8,21.6,8v4.4c-10.2,2.2-15.9-1-18.7-2.5v41.6c2.9,1.4,8.5,4.7,18.7,2.5v-4.4
	c0,0,8.6-3.2,26.1,3.4c17.4,6.6,26.4,2.1,30.5,0.3V11.7C74.1,13.5,65.1,18,47.7,11.4"/>
<path class="st0" d="M2.8,32.2v19.2c2.9,1.6,6.1,2.7,9.4,3.1V32.2"/>
<path class="st0" d="M21.5,31.2V12.3c-3.1,0.7-6.3,0.9-9.4,0.6v18.3"/>
<path class="st0" d="M21.7,30.2v19.3c0.6-0.2,3.7-1.1,9.4-0.6V30.2"/>
<path class="st0" d="M40.5,28.7V9c-3.1-0.9-6.2-1.4-9.4-1.7v21.4"/>
<path class="st0" d="M40.5,32.4v18.2c2.2,0.6,4.6,1.3,7.2,2.3c0.8,0.3,1.5,0.5,2.3,0.8V32.4"/>
<path class="st0" d="M59.4,31.6V14.5C56.2,14,53,13.2,50,12.2v19.4"/>
<path class="st0" d="M59.4,36.6V56c3.1,0.5,6.3,0.5,9.4,0.1V36.6"/>
<path class="st0" d="M68.8,33.6h9.4V11.7c-3,1.4-6.2,2.4-9.4,2.8"/>
<path class="st0" d="M47.7,27.5c-15.8-6-24.6-4-26.2-3.5V28v0.4c-10.2,2.2-15.9-1-18.7-2.5v9.4c2.9,1.4,8.7,4.7,18.9,2.5v-4.4
	c0,0,8.4-3.2,26,3.4C65,43.5,74,39,78.2,37.2v-9.4C74,29.6,65,34,47.7,27.5"/>
</svg>
