<svg xmlns="http://www.w3.org/2000/svg" viewBox="0 0 418 108"><defs><style>.a,.b{fill:#fff;}.a{stroke:#000;stroke-width:0.95px;}</style></defs><title>Scotland white</title><line class="a" x1="139.49" y1="85.21" x2="139.49" y2="19.69"/><polygon class="b" points="29.16 19.69 71.07 44.24 112.98 19.69 29.16 19.69"/><polygon class="b" points="29.16 85.21 71.07 60.65 112.98 85.21 29.16 85.21"/><polygon class="b" points="16.16 77.79 57.83 52.46 16.16 27.14 16.16 77.79"/><polygon class="b" points="126.53 27.14 126.53 77.79 84.86 52.46 126.53 27.14"/><path class="b" d="M166.23,63.29l-4.49-7.17a5.14,5.14,0,0,0,4.35-5.37c0-3.39-2.38-5.72-6-5.72h-8V63.29h3.2V56.47h3.21l4,6.82Zm-6.54-9.64h-4.41v-5.8h4.41a2.85,2.85,0,0,1,3.12,2.87,2.88,2.88,0,0,1-3.12,2.93m10.64-5.2a1.78,1.78,0,1,0-1.78-1.77,1.78,1.78,0,0,0,1.78,1.77m1.42,1.62h-2.87V63.29h2.87Zm15.61,13.22V50.07h-2.87V51.9a5.21,5.21,0,0,0-4.25-2.16c-3.39,0-5.85,2.65-5.85,6.93s2.49,6.95,5.85,6.95a5.35,5.35,0,0,0,4.25-2.14v1.81Zm-6.27-2.22c-2.3,0-3.75-1.83-3.75-4.4s1.45-4.38,3.75-4.38a4.31,4.31,0,0,1,3.4,1.77v5.23a4.29,4.29,0,0,1-3.4,1.78m15.18,7.58c3.23,0,6.79-1.28,6.79-6.05V50.07h-2.87V51.9A5.2,5.2,0,0,0,196,49.74c-3.43,0-5.86,2.49-5.86,6.79s2.49,6.79,5.86,6.79a5.32,5.32,0,0,0,4.24-2.22v1.5c0,2.82-2,3.7-3.92,3.7a5.21,5.21,0,0,1-4.21-1.7l-1.34,2.08a7.54,7.54,0,0,0,5.55,2m.52-7.91c-2.3,0-3.75-1.67-3.75-4.21s1.45-4.24,3.75-4.24a4.4,4.4,0,0,1,3.4,1.75v5a4.4,4.4,0,0,1-3.4,1.75m21.51,2.55V53.93c0-2.71-1.42-4.19-4.27-4.19a6.24,6.24,0,0,0-4.65,2.11V45h-2.87V63.29h2.87V54a4.41,4.41,0,0,1,3.4-1.75c1.61,0,2.65.6,2.65,2.68v8.32Zm15.71,0V50.07h-2.88V51.9a5.2,5.2,0,0,0-4.24-2.16c-3.4,0-5.86,2.65-5.86,6.93s2.49,6.95,5.86,6.95a5.33,5.33,0,0,0,4.24-2.14v1.81Zm-6.27-2.22c-2.3,0-3.75-1.83-3.75-4.4s1.45-4.38,3.75-4.38a4.29,4.29,0,0,1,3.39,1.77v5.23a4.27,4.27,0,0,1-3.39,1.78m13.09,2.55a3.9,3.9,0,0,0,2.7-.85l-.68-2.19a1.85,1.85,0,0,1-1.29.49c-.82,0-1.25-.68-1.25-1.59V45h-2.88V60.2a3.06,3.06,0,0,0,3.4,3.42m7.88,0a3.93,3.93,0,0,0,2.69-.85l-.69-2.19a1.77,1.77,0,0,1-1.26.49c-.82,0-1.26-.68-1.26-1.59V52.56h2.69V50.07h-2.69V46.46h-2.87v3.61h-2.19v2.49h2.19V60.2c0,2.21,1.15,3.42,3.39,3.42m16.47-.33V50.07h-2.87V51.9a5.2,5.2,0,0,0-4.24-2.16c-3.4,0-5.86,2.65-5.86,6.93s2.49,6.95,5.86,6.95a5.33,5.33,0,0,0,4.24-2.14v1.81Zm-6.26-2.22c-2.3,0-3.75-1.83-3.75-4.4s1.45-4.38,3.75-4.38a4.29,4.29,0,0,1,3.39,1.77v5.23a4.27,4.27,0,0,1-3.39,1.78m14.36,2.55c3.56,0,5.5-1.78,5.5-4.14,0-5.25-8-3.5-8-5.83,0-.93.93-1.64,2.43-1.64a5.4,5.4,0,0,1,3.92,1.59l1.2-2a7.55,7.55,0,0,0-5.12-1.83c-3.34,0-5.2,1.83-5.2,4,0,5.09,8,3.22,8,5.83,0,1-.9,1.75-2.62,1.75a6.77,6.77,0,0,1-4.46-1.84l-1.32,2.06a8,8,0,0,0,5.67,2.08m27-.33V54c0-2.71-1.42-4.24-4.27-4.24a6.31,6.31,0,0,0-4.68,2.11V50.07h-2.87V63.29h2.87V54a4.51,4.51,0,0,1,3.4-1.75c1.61,0,2.68.65,2.68,2.73v8.27Zm15.66,0V50.07h-2.87V51.9a5.21,5.21,0,0,0-4.25-2.16c-3.39,0-5.85,2.65-5.85,6.93s2.49,6.95,5.85,6.95a5.33,5.33,0,0,0,4.25-2.14v1.81Zm-6.27-2.22c-2.3,0-3.75-1.83-3.75-4.4s1.45-4.38,3.75-4.38a4.31,4.31,0,0,1,3.4,1.77v5.23a4.29,4.29,0,0,1-3.4,1.78m28.6,2.22V53.93c0-2.71-1.42-4.19-4.26-4.19a6.27,6.27,0,0,0-4.66,2.11V45h-2.87V63.29h2.87V54a4.41,4.41,0,0,1,3.4-1.75c1.61,0,2.65.6,2.65,2.68v8.32Zm9.46-7.86h-6.57V57.9h6.57Zm19.39,7.86L359.92,45h-4l-7.17,18.26h3.64l1.34-3.53h8.37l1.35,3.53Zm-5.89-6.35h-6.57l3.29-8.71Zm10.85,6.68a3.92,3.92,0,0,0,2.7-.85l-.68-2.19a1.85,1.85,0,0,1-1.29.49c-.82,0-1.26-.68-1.26-1.59V45h-2.87V60.2a3.06,3.06,0,0,0,3.4,3.42m7.28-4.3V54.06a4.34,4.34,0,0,1,3.42-1.77c2.27,0,3.72,1.83,3.72,4.38s-1.45,4.4-3.72,4.4a4.32,4.32,0,0,1-3.42-1.75m0,4V61.48a5.36,5.36,0,0,0,4.24,2.14c3.39,0,5.88-2.58,5.88-6.95s-2.46-6.93-5.88-6.93a5.22,5.22,0,0,0-4.24,2.16V45h-2.88V63.29Zm25.12,0V50.07h-2.87V51.9a5.2,5.2,0,0,0-4.24-2.16c-3.4,0-5.86,2.65-5.86,6.93s2.49,6.95,5.86,6.95a5.33,5.33,0,0,0,4.24-2.14v1.81Zm-6.26-2.22c-2.3,0-3.75-1.83-3.75-4.4s1.45-4.38,3.75-4.38a4.29,4.29,0,0,1,3.39,1.77v5.23a4.27,4.27,0,0,1-3.39,1.78"/><path class="b" d="M158.61,39.42c4.9,0,7.06-2.62,7.06-5.66,0-6.79-10.62-4.68-10.62-8.11,0-1.34,1.2-2.27,3.06-2.27a7.44,7.44,0,0,1,5.31,2.11l1.81-2.38a9.46,9.46,0,0,0-6.81-2.57c-4,0-6.66,2.32-6.66,5.36,0,6.71,10.62,4.33,10.62,8.16,0,1.23-1,2.52-3.64,2.52A7.84,7.84,0,0,1,153,34l-1.81,2.49a10,10,0,0,0,7.45,2.9m15.91,0a6,6,0,0,0,5.06-2.35l-1.89-1.78a3.56,3.56,0,0,1-3,1.59c-2.38,0-4-1.84-4-4.41s1.61-4.38,4-4.38a3.5,3.5,0,0,1,3,1.53l1.89-1.72a5.88,5.88,0,0,0-5.06-2.36,6.63,6.63,0,0,0-6.82,6.93,6.65,6.65,0,0,0,6.82,7m13.13,0a6.63,6.63,0,0,0,6.79-7,6.79,6.79,0,1,0-13.58,0,6.62,6.62,0,0,0,6.79,7m0-2.54c-2.44,0-3.81-2.06-3.81-4.41s1.37-4.38,3.81-4.38,3.8,2.05,3.8,4.38-1.34,4.41-3.8,4.41m13.56,2.54a3.92,3.92,0,0,0,2.68-.84l-.68-2.2a1.79,1.79,0,0,1-1.26.5c-.82,0-1.26-.69-1.26-1.59V28.36h2.68V25.87h-2.68V22.26h-2.88v3.61h-2.18v2.49h2.18V36c0,2.22,1.15,3.42,3.4,3.42m9.22,0a3.92,3.92,0,0,0,2.68-.84l-.69-2.2a1.77,1.77,0,0,1-1.26.5c-.82,0-1.26-.69-1.26-1.59V28.36h2.69V25.87H209.9V22.26H207v3.61h-2.19v2.49H207V36c0,2.22,1.15,3.42,3.4,3.42m6.12-15.16a1.78,1.78,0,1,0-1.78-1.78,1.78,1.78,0,0,0,1.78,1.78M218,25.87H215.1V39.09H218Zm8.16,13.55c3.56,0,5.5-1.78,5.5-4.13,0-5.25-8-3.5-8-5.83,0-.93.93-1.64,2.44-1.64A5.38,5.38,0,0,1,230,29.41l1.21-2a7.57,7.57,0,0,0-5.12-1.84c-3.34,0-5.21,1.84-5.21,4,0,5.09,8,3.23,8,5.83,0,1-.91,1.76-2.63,1.76a6.77,6.77,0,0,1-4.46-1.84l-1.32,2.05a8,8,0,0,0,5.67,2.08m20.06-.33V29.73c0-2.71-1.42-4.19-4.27-4.19a6.24,6.24,0,0,0-4.65,2.11V20.84H234.4V39.09h2.88V29.84a4.42,4.42,0,0,1,3.39-1.75c1.62,0,2.66.6,2.66,2.68v8.32Zm18.82.36c5.74,0,9.08-4,9.08-10.18h-10v2.82h6.49a5.29,5.29,0,0,1-5.34,4.49A6.27,6.27,0,0,1,259,30a6.25,6.25,0,0,1,6.3-6.6A5.88,5.88,0,0,1,270,25.82l2.6-1.51a8.52,8.52,0,0,0-7.33-3.77c-5.31,0-9.58,3.69-9.58,9.44A9.15,9.15,0,0,0,265,39.45m17.46,0a6.62,6.62,0,0,0,6.78-7,6.79,6.79,0,1,0-13.57,0,6.62,6.62,0,0,0,6.79,7m0-2.54c-2.44,0-3.81-2.06-3.81-4.41s1.37-4.38,3.81-4.38,3.8,2.05,3.8,4.38-1.34,4.41-3.8,4.41m15.84,2.21,5.39-13.22h-3.07l-3.86,9.91-3.86-9.91h-3.09l5.39,13.22Zm12.87.33a7.8,7.8,0,0,0,5.36-1.94l-1.31-1.89a5.57,5.57,0,0,1-3.78,1.48,4,4,0,0,1-4.19-3.64h10.18v-.71c0-4.16-2.51-7.18-6.48-7.18a6.69,6.69,0,0,0-6.71,6.93,6.63,6.63,0,0,0,6.93,7m3.5-8h-7.45a3.62,3.62,0,0,1,3.7-3.47,3.56,3.56,0,0,1,3.75,3.47m8.37,7.72v-9a4.52,4.52,0,0,1,3.42-1.78,4.33,4.33,0,0,1,.88.08V25.54a5.75,5.75,0,0,0-4.3,2.25V25.87h-2.87V39.09Zm18.26,0v-9.3c0-2.71-1.43-4.25-4.27-4.25a6.29,6.29,0,0,0-4.68,2.11V25.87h-2.88V39.09h2.88V29.84a4.51,4.51,0,0,1,3.39-1.75c1.62,0,2.68.66,2.68,2.74v8.26Zm22.66,0V29.54c0-2.68-1.4-4-3.81-4A5.58,5.58,0,0,0,355.68,28a3.45,3.45,0,0,0-3.61-2.42,5.86,5.86,0,0,0-4.32,2.11V25.87h-2.88V39.09h2.88V29.84a4,4,0,0,1,3.06-1.75c1.56,0,2.16,1,2.16,2.38v8.62h2.88V29.84a3.94,3.94,0,0,1,3.06-1.75c1.57,0,2.19,1,2.19,2.38v8.62Zm9.73.33a7.8,7.8,0,0,0,5.36-1.94l-1.31-1.89A5.57,5.57,0,0,1,374,37.07a4,4,0,0,1-4.19-3.64H380v-.71c0-4.16-2.51-7.18-6.48-7.18a6.69,6.69,0,0,0-6.71,6.93,6.63,6.63,0,0,0,6.93,7m3.5-8h-7.45a3.62,3.62,0,0,1,3.7-3.47,3.56,3.56,0,0,1,3.75,3.47m17.33,7.72v-9.3c0-2.71-1.43-4.25-4.28-4.25a6.31,6.31,0,0,0-4.68,2.11V25.87h-2.87V39.09h2.87V29.84a4.55,4.55,0,0,1,3.4-1.75c1.61,0,2.68.66,2.68,2.74v8.26Zm7.59.33a3.92,3.92,0,0,0,2.68-.84l-.68-2.2a1.79,1.79,0,0,1-1.26.5c-.83,0-1.26-.69-1.26-1.59V28.36h2.68V25.87h-2.68V22.26h-2.88v3.61h-2.19v2.49h2.19V36c0,2.22,1.15,3.42,3.4,3.42"/><path class="b" d="M157.36,90.66c3.2,0,6.72-1.28,6.72-6V72.25h-2.84v1.82a5.14,5.14,0,0,0-4.2-2.14c-3.39,0-5.8,2.46-5.8,6.72s2.46,6.72,5.8,6.72a5.27,5.27,0,0,0,4.2-2.2v1.5c0,2.79-2,3.65-3.88,3.65a5.16,5.16,0,0,1-4.17-1.68l-1.33,2.06a7.48,7.48,0,0,0,5.5,2m.52-7.84c-2.28,0-3.72-1.65-3.72-4.17s1.44-4.2,3.72-4.2a4.33,4.33,0,0,1,3.36,1.73v4.91a4.33,4.33,0,0,1-3.36,1.73m15.72,2.85a6.87,6.87,0,1,0-6.72-6.89,6.56,6.56,0,0,0,6.72,6.89m0-2.52c-2.41,0-3.77-2-3.77-4.37s1.36-4.33,3.77-4.33,3.77,2,3.77,4.33-1.33,4.37-3.77,4.37m15.68,2.19,5.34-13.09h-3l-3.82,9.81-3.83-9.81h-3.06l5.34,13.09Zm7.23.3a1.94,1.94,0,0,0,1.9-1.92,1.9,1.9,0,0,0-3.8,0,1.94,1.94,0,0,0,1.9,1.92m9.88,0c3.53,0,5.45-1.76,5.45-4.1,0-5.2-7.91-3.46-7.91-5.77,0-.92.92-1.62,2.41-1.62a5.35,5.35,0,0,1,3.88,1.57l1.19-2a7.48,7.48,0,0,0-5.07-1.81c-3.31,0-5.15,1.81-5.15,3.95,0,5,7.92,3.2,7.92,5.78,0,1-.9,1.73-2.61,1.73a6.72,6.72,0,0,1-4.41-1.82l-1.31,2a8,8,0,0,0,5.61,2.06m14.1,0a5.9,5.9,0,0,0,5-2.33l-1.87-1.77a3.52,3.52,0,0,1-3,1.58c-2.36,0-4-1.82-4-4.37s1.59-4.33,4-4.33a3.46,3.46,0,0,1,3,1.51l1.87-1.7a5.82,5.82,0,0,0-5-2.33,6.87,6.87,0,0,0,0,13.74m13,0a6.87,6.87,0,1,0-6.72-6.89,6.57,6.57,0,0,0,6.72,6.89m0-2.52c-2.41,0-3.77-2-3.77-4.37s1.36-4.33,3.77-4.33,3.77,2,3.77,4.33-1.33,4.37-3.77,4.37m13.43,2.52a3.83,3.83,0,0,0,2.65-.84l-.67-2.17a1.81,1.81,0,0,1-1.25.49c-.81,0-1.25-.68-1.25-1.58V74.72h2.66V72.25H246.4V68.67h-2.84v3.58h-2.17v2.47h2.17v7.56c0,2.19,1.13,3.39,3.36,3.39"/></svg>