<?xml version="1.0" encoding="utf-8"?>
<!-- Generator: Adobe Illustrator 24.1.3, SVG Export Plug-In . SVG Version: 6.00 Build 0)  -->
<svg version="1.1" id="Layer_1" xmlns="http://www.w3.org/2000/svg" xmlns:xlink="http://www.w3.org/1999/xlink" x="0px" y="0px"
	 viewBox="0 0 250 107.1" style="enable-background:new 0 0 250 107.1;" xml:space="preserve">
<style type="text/css">
	.st0{fill:#FFFFFF;}
</style>
<path class="st0" d="M207.6,2.8c1.1,1.1,1.1,2.9,1.1,4.5c-0.1,1.6-0.2,3.3-0.4,4.9l-0.3,1.7c0.4,0.1,0.7-0.4,1.1-0.5
	c2-1.1,3.6-2.8,4.6-4.9c0-0.9,0.5-1.8,1.3-2.2c0.6-0.2,1.4-0.3,1.9,0.3c0.5,0.6,0.7,1.4,0.5,2.1C217,8.8,217.2,9,217,9.2
	c-0.3,1.3-0.9,2.4-1.7,3.4c-0.3,0.1-0.3,0.4-0.4,0.6l-0.4,0.4l0,0c-1,1.4-2.6,2.2-4,3.2c-0.8,0.4-1.6,0.7-2.5,1
	c0.3,0.8,0.8,1.5,1.4,2.2c0.9,1,1.7,2.1,2.4,3.2c-0.1,0.2,0.2,0.2,0.3,0.4c2,2.8,3.9,5.8,6.2,8.4c0.8,0.7,1.6,1.6,2.8,1.8
	c1,0.3,1.4,1.4,1.9,2.2c0.1,0.5,0.2,1,0,1.4c-0.5,0.6-1.4,0.9-2.2,0.8c-3.2-0.6-5-3.7-7.1-6.1c-1.8-2.4-3.4-4.4-5.1-6.7
	c-0.9-1.3-1.7-2.5-2.6-3.8c-0.3,0.6-0.4,1.4-0.7,2.1c-0.5,1.2-1,2.4-1.7,3.6c0,0.3-0.1,0.6-0.3,0.7c0.2,0.2-0.2,0.4-0.1,0.6
	c-0.3,0.3-0.3,0.9-0.6,1.2c-0.5,0.9-0.8,2-1.2,2.9c0.2,0.7,0.3,1.8-0.3,2.3c-0.2,0.4-0.5,0.8-1,0.9c-0.9,0.1-1.7-0.3-2.2-1
	c-0.5-0.8-0.7-1.8-0.4-2.7c0.5-1.3,1.1-2.5,1.8-3.8c0.5-1.1,0.7-2.3,1.2-3.4c-0.2-0.2,0.3-0.3,0.1-0.6c0.3-0.7,0.5-1.4,0.6-2.1
	c0.7-2.3,1.4-4.7,1.9-7.2c0.4-1.3,0.8-2.7,1-4.1H204c0.1-0.1,0.2-0.4,0.1-0.5c0.1-0.2,0-0.5,0.1-0.7c0-1.3,0.4-2.6,0-3.9
	c0-1-0.5-1.9-0.6-3c0.1-0.4,0.3-0.8,0.6-1.1c0.5-0.5,1.1-0.6,1.7-0.4C206.6,1.8,207.2,2.3,207.6,2.8"/>
<path class="st0" d="M106.4,14.3c1.2,0.5,2.3,1.4,2.9,2.5c0.2,0.5,0.1,1.1-0.3,1.5c-0.3,0.2-0.7,0.3-1,0.2c-0.9-0.8-1.6-1.8-2.9-2
	c-1.8-0.7-3.7,0.1-5.6,0.3c-1.2,0.2-2.3,0.7-3.5,1c-0.9,0.3-1.8,0.7-2.7,1.1s-1.7,0.8-2.7,1c0,0.2-0.4,0-0.5,0.2
	c-0.8,0.4-1.7,0.8-2.5,1.2c-0.1-0.1-0.3,0.1-0.4,0.2c-1.3,0.4-2.6,1-3.8,1.7l-0.4,0.1c-0.4,0.4-1.1,0.6-1.6,1
	c-0.3-0.1-0.3,0.2-0.4,0.3c-1.3,0.7-2.9,1.3-4,2c-0.5,0.2-1,0.5-1.4,0.8c-0.8,0.1-1.1,0.8-1.9,0.9c-0.1,0.3-0.3,0-0.4,0.2
	c-1,0.7-2.1,1.1-3.2,1.7c-0.5,0.2-1,0.5-1.4,0.8c-0.4,0.1-0.8,0.5-1.2,0.6c-0.1,0.2-0.5,0.4-0.7,0.6c-3.3,1.8-6.5,3.9-9.5,6.2
	c-1.2,1-2.8,1.6-3.2,3.2c-0.2,0.9,0.6,1.3,0.9,1.9c2,1.1,4.2,1.8,6.4,2c2.5,0.6,5,0.7,7.6,1.3c2.1,0.2,3.9,0.6,6,0.8
	c2.2,0.4,4.6,0.6,6.9,0.8l0.1,0.1c2.2,0.2,4.4,0.6,6.5,1.2c1.7,0.3,3.4,0.6,5.1,1.1c2.1,0.7,4.1,1.6,6.1,2.6c2.3,1.2,4.3,3,5.5,5.4
	c0,0.3,0.3,0.6,0.3,0.9c0.4,1.7,0.6,3.4,0.4,5.2c0,0.2-0.1,0.4-0.1,0.6c-0.7,3.1-2.2,5.9-4.3,8.3c-0.4,0.4-0.8,0.8-1.2,1.3h-0.1
	c-3.7,4.3-8,8-12.8,11.1c-0.3,0.1-0.6,0.4-0.9,0.4c-0.3,0.4-1,0.4-1.3,0.8c-0.7,0.2-1.1,0.7-1.8,1.1l-0.2,0.2
	c-2.1,1.1-3.7,2.4-5.7,3.4c-0.1,0.1-0.3-0.1-0.3,0.1c-3.4,2-7.2,3.4-10.7,5c-0.3,0.1-0.6,0.3-0.9,0.4c-0.2,0-0.3,0.2-0.6,0.2
	c-3.5,1.3-6.3,2.8-9.8,3.9c-0.6,0.3-1.3,0.5-2,0.7c-1.4,0.8-3.1,0.9-4.6,1.5c-1.2,0.1-2.2,0.6-3.4,0.7c-0.4,0.2-1,0.1-1.5,0.3
	c-1.3,0.3-2.6,0.6-3.8,0.8c0,0.2-0.5,0-0.6,0.2l-0.1-0.1l-0.1,0.1c-2.1,0.3-4.4,0.3-6.5,0.6c-0.9-0.2-1.5,0.1-2.4-0.1
	c-1.6,0-3.1-0.1-4.6-0.4c-1-0.1-2-0.3-3-0.6c-3.2-1.2-6.6-2.8-8.6-5.8c-1.4-2.1-2.7-4.5-2.7-7.1c-0.2-1.2-0.3-2.5-0.2-3.8
	c-0.1-1.7,0.6-3.4,1-5.1c1-2.1,1.9-4.2,3.1-6.2c0.5-0.6,0.9-1.2,1.2-1.9c0.3-0.3,0.4-0.7,0.7-1c0.2,0.1,0.1-0.1,0.2-0.2
	c-0.1-0.3,0.3-0.6,0.4-0.8v0.3c0.1-0.2,0.2-0.4,0.3-0.6c0,0.2,0.2-0.1,0.2,0.1c0.1,0,0.1-0.1,0.1-0.2s-0.1,0-0.1,0
	c0.2-0.1,0.3-0.6,0.6-0.6c0.1-0.1-0.1-0.3,0.2-0.4c0,0.1,0.1,0,0.2-0.1v-0.1c0.1,0,0.1,0.1,0.2,0c-0.3-0.2,0.1-0.2,0.1-0.4l0,0
	c0.1-0.2,0.3-0.4,0.5-0.5c0.2-0.1,0.1-0.1,0.1-0.2s0.3-0.3,0.3-0.5h0.3v0.1c0,0,0.1-0.1,0.1-0.1l-0.1-0.1l0.4-0.5H21l0.2-0.2
	c0.3,0.1-0.2,0.5,0.2,0.5c0-0.1,0.1-0.1,0.2-0.1c-0.1,0,0.1-0.1,0-0.2c0.2,0,0.1-0.3,0.3-0.3c0.5-0.4,1.4-1.3,1.9-1.7
	c-0.2,0.2-0.4,0.4-0.5,0.7H23l0.1,0.1c-0.3,0-0.4,0.3-0.4,0.5c0,0-0.1-0.1-0.2,0c0.4,0.5-0.5,0.6-0.4,1.1c-0.1,0.5-0.8,0.7-0.8,1.2
	l-0.4,0.6c0,0,0,0.1,0.1,0.1c0,0,0,0,0.1,0c0.1-0.3,0.5-0.4,0.6-0.6c0.1,0.2-0.2,0.4-0.3,0.5s0,0.2-0.1,0.2l0,0
	c-0.3,0-0.2,0.4-0.3,0.5s-0.1,0.4-0.3,0.5s-0.5,0.3-0.3,0.6c-0.6,0.4-0.4,1.2-0.9,1.5c-0.1,0.6-0.6,0.8-0.7,1.4
	c-1.1,1.9-2.1,3.9-3,6c-0.1,0.3-0.2,0.6-0.4,0.9c-0.7,1.9-1.2,3.8-1.4,5.8c-0.1,0.9-0.1,1.7,0.1,2.6c0.2,1.7,0.7,3.3,1.6,4.8
	c1.1,1.9,2.7,3.4,4.6,4.6c1.9,1.2,3.9,2,6.1,2.4c0.1,0,0.3,0,0.4,0c0.2,0.4,0.6,0,0.8,0.1c1,0.1,1.8,0,2.8,0.1h1
	c1.5-0.2,3.3,0,4.6-0.4c0.4,0,0.7,0,1-0.1c2.8-0.4,5.5-1,8.2-1.8c2.6-0.6,5.2-1.5,7.6-2.5c3-0.9,5.9-2,8.6-3.4
	c0.5-0.2,1.1-0.5,1.6-0.7c2.6-1,5.2-2.2,7.7-3.5c2-1.1,4.3-1.8,6.2-3c0.3-0.2,0.6-0.3,0.8-0.4c0,0,0,0.1,0.1,0.1h0.1
	c-0.1-0.4,0.4-0.3,0.7-0.6c3.8-2,7.5-4.2,11-6.7c0.1-0.2,0.3-0.3,0.4-0.3c0.5-0.4,1-0.8,1.5-1.1c0.1-0.3,0.4-0.2,0.5-0.4l0.4-0.3
	c0,0,0,0.1,0,0.1c0.3-0.3,0.6-0.5,0.9-0.9s0.6-0.7,0.9-0.7c0-0.1,0.2-0.2,0.3-0.3c0.6-0.7,1.3-1.3,2-1.9c2.4-2.7,4.8-5.7,5.7-9.2
	c0.2-1,0.3-2.1,0.3-3.1c0.1-0.4,0-0.9-0.1-1.3c-0.1-0.4-0.2-0.8-0.3-1.1c-0.5-2.1-2.4-2.9-4.1-4.1c-0.5-0.3-1.1-0.5-1.7-0.6
	c-0.6-0.3-1.3-0.6-2-0.7c-1.9-0.7-4-1.1-5.9-1.8c-4.3-1-9.3-1.5-13.8-2v0.1c-0.4-0.2-1-0.1-1.3-0.2c-2.8-0.4-5.5-0.5-8.1-1.1
	c-0.7-0.2-1.5-0.3-2.2-0.5c-0.1,0.1-0.4,0-0.6-0.1c-1.3-0.2-2.6-0.6-3.9-1c-3-0.4-5.7-1.8-7.8-3.9c-1-1.1-1.1-2.7-0.4-4.1
	c0.2-0.5,0.7-0.6,0.9-1c1-1.1,2.4-2,3.7-3l1-0.9H56c0.1-0.2,0.3-0.3,0.5-0.4c0.8-0.7,1.9-1.3,2.7-1.9c0.2,0,0.2-0.2,0.4-0.2
	c0.7-0.6,1.5-0.8,2.1-1.4c1-0.6,2-1.1,2.9-1.7c0.3-0.2,0.7-0.4,1.1-0.6c0.2-0.3,0.6-0.2,0.8-0.5c0.9-0.5,1.7-0.9,2.6-1.5
	c0.2,0,0.3-0.1,0.4-0.2c1.1-0.6,2.3-1.2,3.3-1.8v0.1c1.3-0.8,2.9-1.6,4.3-2.3h0.4l-0.1-0.1c1.2-0.4,2-1.1,3.2-1.6
	c1.1-0.7,2.4-1.2,3.5-1.9c0.4,0,0.5-0.4,1-0.4c0.5-0.3,1-0.4,1.5-0.7c2.9-1.2,5.8-2.2,8.8-3.1c0.8-0.3,1.7-0.5,2.6-0.7
	c1.8-0.4,3.7-0.5,5.5-0.6C104.4,13.7,105.5,13.9,106.4,14.3"/>
<path class="st0" d="M148.7,18.4c1.3,1.3,0.2,3.3-0.1,4.8c-0.3,0.1,0.1,0.5-0.3,0.5c-0.4,1.6-0.9,3.1-1.5,4.6
	c-0.1,0.8-0.7,1.5-0.8,2.3c0.6-0.4,1.1-1.2,1.9-1.6c1.1-0.4,2.3-0.2,3.2,0.5c1.5,1.7,1.3,4.4,1.4,6.5c0.1,0.4,0.1,1,0.5,1.2
	c0.7,0.2,1.2,0.7,1.4,1.4c0,0.6-0.2,1.1-0.5,1.6c-0.3,0.4-1,0.5-1.5,0.8c-0.3,0-0.7,0-1.1-0.1c-0.9-0.5-1.6-1.2-2-2.1
	c-0.6-1.1-0.8-2.3-0.6-3.5c0-0.5-0.1-0.9-0.3-1.3h-0.2l-1.1,0.9c0.1,0.1-0.1,0.1-0.1,0.3c-0.3,0.5-0.6,1-1,1.5l0.1,0.1
	c-0.3,0.4-0.6,0.8-0.8,1.2c-0.2-0.1-0.1,0.2-0.2,0.3c-0.3,0.4-0.4,0.8-0.8,1.2c-0.7,0.9-1.5,2-2.8,1.6c-0.7-0.1-1.3-0.6-1.6-1.2
	c-0.8-2.7,1-5.2,1.8-7.5c0.4-1.5,1.3-3,1.6-4.5l0.1-0.1c0.8-2.6,1.7-5.2,2.2-7.7c0.2-0.7,0.4-1.9,1.2-2.3c0.3,0.1,0.6-0.2,0.9,0
	C148.2,17.8,148.5,18,148.7,18.4"/>
<path class="st0" d="M139.5,21.4c0.3,0.3,0.3,0.6,0.5,0.9c0.2,0.9,0.2,1.8-0.1,2.7c-0.2,0.3-0.2,0.7-0.3,1.1
	c0.5,0.1,0.6-0.5,1.1-0.4c0.5-0.1,1.1,0.1,1.5,0.5c0.8,0.9,0.1,2.2-0.4,3c-0.6,1.2-2,1.6-2.9,2.3c-0.4,0.2-0.8,0.4-1.2,0.7
	c-0.1,0.3-0.2,0.4-0.2,0.7c-1.1,2.8-2.3,5.8-3.3,8.7c0,0.2-0.1,0.3-0.1,0.4c0,0.4-0.1,0.8-0.3,1.1l0,0c-0.3,0.4-0.1,0.7-0.3,1.1
	c0,0.1,0,0.3,0,0.4c-0.1,0.8,0,1.6,0.2,2.4c-0.1,0.1,0,0.2-0.1,0.3c0.3,0.3,0.1,0.9,0.1,1.3c-0.1,0.7-0.6,1.4-1.2,1.8
	c-0.7,0.3-1.6,0.2-2.2-0.3c-1.1-1-1-2.7-1-4c0.5-3.9,2.2-7.5,3.4-11.2c0.1-0.5,0.3-0.9,0.6-1.3c-0.1-0.2,0.2-0.3,0-0.3
	c-1.1,0.5-2.2,0.8-3.3,0.9c-0.4,0.2-1.1,0.2-1.1,0.7c-0.1,1.3-0.3,2.6-0.7,3.9v0.3c-0.6,1-1.2,1.9-1.8,2.8c-0.3,0-0.3,0.4-0.5,0.5
	c-1,1-2.5,1.5-3.9,1.3c-0.6,0.3-1.2-0.3-1.6-0.5c-0.4-0.4-0.8-0.9-1-1.5c-0.6-0.6-0.2-1.6-0.3-2.4c0.3-1.2,0.7-2.5,1.1-3.7
	c0.2-0.6,0.4-1.1,0.8-1.6c0.4-0.3,0.8-0.4,1.2-0.4c0.5,0.2,1.3,0.5,1.5,1.2c0.1,0.9-0.1,1.7-0.5,2.5c0,0.9-0.6,1.6-0.3,2.5
	c0.1,0.3,0.5,0.2,0.8,0.2c1.8-0.7,1.7-3,1.8-4.6c-0.1-0.9,0.1-1.9,0.5-2.8l1.1-0.9c1.2-0.6,2.6-0.4,3.7-1.1l2.4-0.7
	c0.5-0.2,1-0.5,1.5-0.8c0.5-2.5,1.4-4.6,1.4-7.3c-0.1-0.5,0.1-1,0.6-1.3c0.2-0.1,0.4-0.1,0.5-0.3C138.1,19.9,139,20.5,139.5,21.4"/>
<path class="st0" d="M198.8,20.7c0.3,0.3,0.5,0.7,0.5,1.2c0,0.4-0.1,0.9-0.4,1.3c-0.4,0.7-1,1.2-1.8,1.5c-2.4,1.3-4.1,4.1-5.8,6.3
	c-0.2,0.3-0.4,0.7-0.6,1c0.2,0.9-0.1,1.8-0.8,2.4c-0.6,0.4-1.4,0.5-2.1,0.2c-1.6-0.3-1.8-2.2-2-3.5c0-1.8-0.2-4.5,1.7-5.3
	c0.4-0.1,0.8-0.1,1.1,0.1c0.5,0.4,0.8,1,0.8,1.6l2.1-2.9c1.3-1.5,2.9-2.8,4.6-3.8c0.6,0,1.1-0.4,1.6-0.2
	C198.2,20.3,198.4,20.6,198.8,20.7"/>
<path class="st0" d="M180.4,27.3c-0.3-0.1-0.5,0-0.8,0.1c-0.7,0.7-1.1,1.5-1.3,2.4c-0.1,0.3,0,0.7,0.1,1c0.2,0.5,0.8,0.1,1.2,0.2
	c1.1-0.7,1.9-1.8,2.4-3c-0.3,0-0.9,0.3-1.1-0.2C180.7,27.7,180.6,27.5,180.4,27.3 M178.1,24.8c0.7-0.6,1.5-1,2.4-1.2
	c0.2,0.2,0.3-0.1,0.6,0c0.7,0.1,1.3,0.2,1.6,0.8c0.5,0.7,0.7,1.6,0.4,2.4c0.3,0.1,0.6,0.2,0.9,0.4c1.1,1.2,0.8,2.8,1,4.5
	c-0.1,0.8,0.3,2.4-0.8,2.8c-0.6,0.3-1.2,0.1-1.8,0.1c-0.4-0.2-0.8-0.6-0.9-1c-0.4,0.2-0.6,0.6-1,0.7c-0.3,0.4-0.7,0.6-1.1,0.7
	c-1,0.5-2.3,0.5-3.2-0.1c-1.3-0.8-2-2.4-1.6-3.9c0.4-1.2,0.9-2.4,1.5-3.5c-0.2-0.1-0.5-0.2-0.8-0.3c-0.7,0.1-0.7,0.9-1.3,1.2l0,0
	c-2,2.7-2.6,6.3-5.2,8.7c-1.2,0.6-2.5,0.7-3.8,0.3c-0.7-0.4-1.4-1.1-1.8-1.8c-0.1,0.1-0.2,0.3-0.3,0.4c-0.7,1.7-1.9,3.8-3.9,4.2
	c-0.7,0.1-1.5-0.2-2-0.7c-1.5-1.7-0.4-4.1-0.1-5.9c0.4-1.1,0.6-2.3,0.7-3.4c-0.2-0.3-0.3-0.6-0.4-1c-0.2-0.6-0.1-1.2,0.3-1.7
	c0.6-0.5,1.4-0.7,2.1-0.4c1,0.5,1.8,1.5,2,2.6c-0.1,0.1,0.1,0.3,0.1,0.5l-0.1,1.7c0.2-0.1,0.3-0.3,0.5-0.5c0.6-0.7,1.4-1,2.3-0.8
	c0.3,0,0.6,0.2,0.8,0.4c0.3,0,0.4,0.4,0.6,0.5c0.5,0.6,0.6,1.9,1.6,1.8c1.8-2.3,2.3-5.2,4.1-7.5c0.1,0,0.1-0.3,0.3-0.2
	c0.6-0.8,1.4-1.4,2.3-1.7c1-0.1,2.1,0,3,0.5C177.4,24.4,177.8,24.7,178.1,24.8"/>
<path class="st0" d="M113.2,37.5c-0.7,0.3-1.3,0.6-1.9,1c-1.3,1.5-2.4,3.9-1.7,6c0.4,0.4,0.9,0.7,1.4,0.7c1.8,0.1,2.9-1.3,3.9-2.6
	c0.6-0.8,0.7-1.9,0.2-2.8c-0.3-0.5-0.7-0.7-1-1.1c-0.2-0.1-0.4-0.5-0.6-0.7S113.5,37.4,113.2,37.5 M117.1,34.3
	c0.6,0.8,0.7,1.8,0.3,2.7c0.4,0.9,1.2,1.7,1.2,2.9c0.5,2.9-2.1,4.8-3.8,6.5c-1.7,1.3-3.9,1.7-5.9,1.1c-1-0.4-1.8-1.3-2.1-2.4
	c-0.4-2.7,0.2-5.4,1.6-7.8c0.6-0.9,1.4-1.7,2.4-2.3l0.2-0.2c1.4-1.3,3.4-1.8,5.2-1.3C116.4,33.7,116.7,34,117.1,34.3"/>
<path class="st0" d="M207.1,45.5c4.2,0.1,8.4,0.4,12.5,1c3,0.4,5.9,1,8.8,2c1.5,0.5,2.7,1.7,3.1,3.2c0.2,0.8-0.2,1.6-0.8,2.1
	c-0.2,0.1-0.4,0.2-0.6,0.3c-0.5,0.2-1.1,0.2-1.6,0c-0.4,0-0.6-0.4-0.9-0.7c0-0.6-0.2-1.2-0.6-1.7c-0.7-0.5-1.4-0.9-2.3-1.1
	c-1.7-1.1-4.2-1-6.1-1.5c-2-0.2-4.3-0.4-6.4-0.6l-0.1,0.1c-12.7-0.8-25.1,0.5-37.6,2.6c-9.8,1.9-19.5,4-29.2,6.5
	c-8.5,2.6-16.6,4.9-24.8,8.3c-1.2,0.3-2.2,1.1-3.3,1.4v0.1c0-0.2-0.2-0.1-0.3,0v0.1c-0.2,0-0.3,0.1-0.5,0.1c0,0.2-0.3,0.1-0.4,0.2
	c-0.1-0.2-0.1,0.1-0.3,0.1l-0.1-0.1l-0.1,0.1c0-0.1-0.1-0.1-0.2-0.1c0,0-0.1,0-0.1,0l0.1,0.2c0,0-0.1,0-0.1-0.1
	c-0.1,0.2-0.4,0-0.5,0.3c-0.3-0.1-0.7,0.2-1,0.2c-0.1,0.2-0.4,0.1-0.6,0.2s-0.3,0.3-0.6,0.2c-0.2,0.2-0.8,0.2-1.1,0.4
	c0-0.1-0.1-0.1,0-0.1c-0.1-0.3-0.4,0.1-0.6-0.1c-0.2,0-0.5,0.2-0.7,0l-0.2,0.1l0.3,0.1c-0.3,0.1-0.4,0.3-0.7,0.2
	c0.1,0,0.2-0.1,0.2-0.2l0.1,0.2c-0.1-0.2,0.2-0.1,0.2-0.3c-0.2-0.1-0.4-0.2-0.6-0.3c-0.3,0-0.5,0.3-0.8,0.3
	c-0.6-0.3-1.4,0.3-1.8-0.1c0.7-0.4,1.4-0.8,2.2-1.2c0.1-0.2,0.4-0.1,0.6-0.3c0.8-0.6,1.7-1,2.6-1.5c2.7-1.1,5.4-2.6,8.2-3.5
	c9.8-3.7,19.7-6.8,29.9-9.2c0.9-0.1,1.7-0.3,2.5-0.6c3.5-0.8,6.9-1.7,10.4-2.3c5.8-1.3,11.7-2.5,17.5-3.3c0.2,0.2,0.3-0.1,0.5-0.1
	c3.5-0.5,6.9-0.9,10.5-1.2l0,0c3.6-0.4,7.6-0.5,11.2-0.6L207.1,45.5"/>
<path class="st0" d="M239.9,53.3l0.1,1c0,0.6-0.1,1.1-0.4,1.6c-0.4,0.6-1.2,1-1.9,0.9c-0.5-0.1-1-0.3-1.5-0.5
	c-0.9-0.5-1.4-1.4-1.5-2.4c-0.1-0.7,0.5-1,0.9-1.5c0.9-0.6,2.2-0.7,3.2-0.2C239.3,52.5,239.7,52.8,239.9,53.3"/>
<path class="st0" d="M111.5,69.2c-0.1,0-0.2,0.2-0.3,0.1C111.3,69.2,111.4,69.2,111.5,69.2"/>
<path class="st0" d="M180.9,82.3c-0.5,2.8-3.1,4.8-5.9,4.6c-3.9,0-6.5-2.8-6.5-7.3c0-4,2-7.5,6.7-7.5c1.6-0.1,3.2,0.5,4.4,1.6
	c0.7,0.7,1.1,1.6,1.4,2.6L178,77c-0.3-1.4-1.5-2.5-3-2.4c-3.6,0-3.6,3.9-3.6,4.8c-0.1,1.2,0.2,2.5,0.8,3.6c0.6,0.9,1.7,1.5,2.8,1.4
	c1.9,0,2.8-1.5,3.2-3L180.9,82.3"/>
<path class="st0" d="M182.7,81.4c0,4.8,3.7,5.6,5.4,5.6c2.9,0.1,5.3-2.3,5.4-5.2c0-0.1,0-0.2,0-0.3c0.1-2.9-2.1-5.3-5-5.4
	c-0.1,0-0.2,0-0.4,0c-2.8-0.1-5.2,2.1-5.3,4.9C182.7,81.1,182.7,81.3,182.7,81.4 M185.5,81.5c0-2.2,1.2-3.2,2.5-3.2s2.5,1.1,2.5,3.2
	c0,2.3-1.3,3.2-2.5,3.2S185.5,83.7,185.5,81.5"/>
<path class="st0" d="M202.4,85.2L202.4,85.2c-0.8,1.1-2,1.8-3.4,1.8c-1.1,0-2.2-0.5-2.9-1.4c-0.5-0.8-0.7-1.8-0.6-2.7v-6.6h2.7v4.8
	c0,2.3,0.1,2.6,0.3,3.1c0.3,0.4,0.8,0.7,1.4,0.7c0.8,0,1.6-0.4,2-1.1c0.2-0.4,0.3-1,0.3-3v-4.4h2.7v10.4h-2.5L202.4,85.2"/>
<path class="st0" d="M214.5,81.4c0-1.7,0-3.2-1.7-3.2c-0.8,0-1.6,0.5-2,1.2c-0.2,0.8-0.3,1.7-0.3,2.6v4.7h-2.7V76.3h2.6v1.5l0,0
	c0.8-1.1,2-1.8,3.4-1.8c0.9,0,1.7,0.3,2.4,0.8c1.1,0.8,1.1,2.4,1.1,3.4v6.4h-2.7L214.5,81.4"/>
<path class="st0" d="M226.4,79.9c-0.1-1-0.9-1.7-1.9-1.6c-2.3,0-2.3,2.4-2.3,3.1c0,2.2,0.7,3.4,2.3,3.4s1.9-1.4,2-2l2.7,0.5
	c-0.6,2.6-2.2,3.8-4.8,3.8c-4.3,0-5-3.7-5-5.4c0-2.4,1.1-5.4,5.1-5.4c3.3,0,4.2,1.9,4.6,3.3L226.4,79.9"/>
<path class="st0" d="M231.2,72.4h2.7v2.5h-2.7V72.4z M231.2,76.4h2.7v10.4h-2.7V76.4z"/>
<rect x="236.7" y="72.4" class="st0" width="2.7" height="14.3"/>
</svg>
